<svg t="1577342331717" class="icon" viewBox="0 0 1269 1024" version="1.1" xmlns="http://www.w3.org/2000/svg" p-id="2544" width="200" height="200"><path d="M859.58656 309.82144c14.56128 0 28.9792 1.06496 43.27424 2.64192C863.96928 133.20192 670.39232 0 449.4336 0 202.3424 0 0 166.7072 0 378.40896c0 122.18368 67.31776 222.53568 179.8144 300.35968l-44.93312 133.8368 157.10208-77.98784c56.2176 11.01824 101.31456 22.3232 157.42976 22.3232 14.09024 0 28.07808-0.67584 41.94304-1.7408a328.41728 328.41728 0 0 1-13.86496-93.24544c0-194.37568 168.61184-352.13312 382.09536-352.13312z m-241.664-120.6272c33.85344 0 56.27904 22.03648 56.27904 55.5008 0 33.3824-22.4256 55.7056-56.25856 55.7056-33.6896 0-67.4816-22.3232-67.4816-55.7056 0-33.46432 33.792-55.5008 67.4816-55.5008z m-314.51136 111.2064c-33.66912 0-67.66592-22.3232-67.66592-55.7056 0-33.46432 33.9968-55.5008 67.66592-55.5008 33.6896 0 56.1152 22.03648 56.1152 55.5008 0 33.3824-22.4256 55.7056-56.1152 55.7056zM1269.76 656.60928c0-177.8688-179.8144-322.88768-381.7472-322.88768-213.8112 0-382.21824 144.9984-382.21824 322.88768 0 178.19648 168.40704 322.88768 382.23872 322.88768 44.7488 0 89.88672-11.1616 134.84032-22.3232L1146.14272 1024l-33.792-111.2064C1202.54464 845.824 1269.76 756.9408 1269.76 656.62976z m-505.6512-55.66464c-22.38464 0-44.97408-22.03648-44.97408-44.52352 0-22.17984 22.56896-44.50304 44.9536-44.50304 33.9968 0 56.25856 22.3232 56.25856 44.50304 0 22.48704-22.26176 44.52352-56.25856 44.52352z m247.1936 0c-22.24128 0-44.6464-22.03648-44.6464-44.52352 0-22.17984 22.40512-44.50304 44.6464-44.50304 33.66912 0 56.23808 22.3232 56.23808 44.50304 0 22.48704-22.56896 44.52352-56.25856 44.52352z" fill="#01D00D" p-id="2545"></path></svg>