<svg t="1577275602261" class="icon" viewBox="0 0 1024 1024" version="1.1" xmlns="http://www.w3.org/2000/svg" p-id="4335" width="200" height="200"><path d="M292.571429 0h438.857142c161.645714 0 292.571429 130.925714 292.571429 292.571429v438.857142c0 161.645714-130.925714 292.571429-292.571429 292.571429H292.571429c-161.645714 0-292.571429-130.925714-292.571429-292.571429V292.571429C0 130.925714 130.925714 0 292.571429 0z" fill="#CB2B37" p-id="4336"></path><path d="M731.428571 0H385.462857c-21.211429 43.154286-38.034286 89.234286-48.274286 136.045714l-160.914285 752.64c-8.045714 36.571429-11.702857 71.68-11.702857 106.057143 38.765714 19.017143 81.92 29.257143 128 29.257143h438.857142c161.645714 0 292.571429-130.925714 292.571429-292.571429V292.571429c0-161.645714-130.925714-292.571429-292.571429-292.571429z" fill="#073D7C" p-id="4337"></path><path d="M1024 731.428571V292.571429c0-155.062857-120.685714-281.6-273.554286-291.84-21.211429 43.154286-38.034286 88.502857-47.542857 135.314285l-160.914286 752.64c-10.24 46.811429-13.165714 92.16-10.24 135.314286H731.428571c161.645714 0 292.571429-130.925714 292.571429-292.571429z" fill="#156D85" p-id="4338"></path><path d="M386.925714 438.857143c-29.257143 5.12-31.451429 32.182857-2.194285 27.794286 27.062857-3.657143 29.988571-31.451429 2.194285-27.794286z m-40.228571 108.251428h38.034286c0-0.731429 16.822857-73.874286 16.822857-77.531428-8.777143 0.731429-18.285714 2.925714-28.525715 5.12h-5.851428c-8.045714 2.194286-5.12 0.731429-8.045714 19.017143-0.731429 10.24-2.925714 19.017143-5.12 27.794285-1.462857 7.314286-5.851429 17.554286-7.314286 25.6z m117.76-97.28c-29.257143 0.731429-46.08 19.748571-51.931429 46.811429-9.508571 36.571429 3.657143 54.857143 41.691429 51.931429 29.988571-2.925714 43.885714-19.748571 51.2-47.542858 9.508571-35.84-5.12-52.662857-40.96-51.2z m-1.462857 21.211429c14.628571-2.925714 8.777143 21.211429 6.582857 29.257143-8.777143 36.571429-25.6 29.988571-25.6 16.091428 0.731429-10.24 6.582857-42.422857 19.017143-45.348571z m65.097143-16.822857l-8.045715 47.542857c-2.925714 11.702857-9.508571 33.645714-9.508571 44.617143 2.925714 0.731429 32.914286 0 35.108571-0.731429 2.925714-5.12 5.851429-27.794286 8.045715-36.571428 2.194286-5.851429 2.925714-11.702857 3.657142-19.017143 2.194286-8.045714 0.731429-10.971429 9.508572-13.165714 9.508571-2.194286 10.971429 3.657143 9.508571 13.165714-0.731429 5.851429-2.925714 13.165714-3.657143 19.017143-2.194286 11.702857-6.582857 27.062857-8.045714 38.765714l35.108572-0.731429c0.731429-2.925714 13.897143-62.902857 14.628571-70.948571 2.194286-14.628571-2.925714-24.868571-15.36-27.062857-14.628571-2.194286-24.137143 5.12-34.377143 10.24 2.925714-14.628571 2.925714-11.702857-12.434286-8.777143-6.582857 1.462857-17.554286 1.462857-24.137142 3.657143zM621.714286 547.108571h40.228571c5.851429-11.702857 8.045714-47.542857 14.628572-58.514285 5.851429-5.12 84.114286 13.897143 98.011428-62.902857 10.971429-59.977143-60.708571-40.96-114.102857-44.617143-5.12 19.748571-12.434286 59.977143-18.285714 83.382857-2.925714 13.897143-6.582857 27.062857-9.508572 40.96-4.388571 12.434286-8.777143 28.525714-10.971428 41.691428z m71.68-141.897142c8.045714 0 27.062857 0.731429 32.182857 3.657142 8.045714 5.12 8.777143 16.822857 5.12 27.794286-6.582857 19.748571-23.405714 25.6-49.005714 24.137143l11.702857-55.588571z m108.251428 137.508571v2.194286l0.731429 2.925714h37.302857c3.657143-13.165714 6.582857-33.645714 9.508571-49.005714 2.925714-13.897143 9.508571-35.84 10.971429-47.542857-3.657143 0-35.84 3.657143-38.765714 7.314285l-2.194286 2.194286c-2.194286-5.851429-10.971429-10.971429-19.748571-10.24-8.045714 0.731429-15.36 3.657143-21.211429 8.045714-6.582857 5.12-10.971429 8.045714-14.628571 14.628572-10.971429 13.897143-22.674286 50.468571-5.851429 68.022857 10.971429 10.24 32.914286 11.702857 43.885714 1.462857z m0.731429-68.754286c6.582857-2.194286 10.971429 2.194286 12.434286 7.314286 0.731429 7.314286 0 13.165714-2.194286 19.017143-2.925714 13.165714-3.657143 24.137143-15.36 27.794286-16.822857 5.851429-12.434286-16.091429-10.971429-27.062858 3.657143-10.971429 6.582857-24.137143 16.091429-27.062857z m40.228571 131.657143c-0.731429 5.12-5.12 16.091429-5.12 21.211429 35.84 0 35.108571 2.194286 51.931429-25.6 22.674286-40.228571 46.08-87.04 69.485714-125.805715 2.925714-5.12 13.897143-21.942857 13.897143-25.6l-32.914286 5.12c-5.12 0.731429-3.657143 2.925714-6.582857 7.314286 0 2.925714-15.36 33.645714-17.554286 35.84l-2.925714-47.542857c-5.851429-0.731429-18.285714 2.925714-26.331428 3.657143-15.36 2.925714-10.971429 2.194286-8.777143 18.285714l8.777143 68.754286c0.731429 8.045714 0.731429 8.045714-2.194286 13.897143-3.657143 5.851429-8.045714 13.165714-11.702857 19.017143l-17.554286 29.257142c-3.657143 2.194286-6.582857 1.462857-12.434286 2.194286z m-117.028571-16.822857h-31.451429L653.897143 724.114286c-8.777143 0.731429-6.582857-0.731429-8.777143 8.777143-2.194286 2.925714-3.657143 8.777143-3.657143 13.165714h63.634286l-2.194286 7.314286h31.451429l2.194285-7.314286h8.777143l-2.194285 7.314286c15.36 0 32.182857 2.194286 43.154285-7.314286 2.925714-2.194286 19.748571-24.868571 21.211429-29.257143 2.194286 2.925714 2.925714 10.971429 2.925714 16.091429 0.731429 5.851429 0.731429 10.24 5.12 13.165714 6.582857 8.045714 18.285714 5.851429 29.988572 5.851428l6.582857-22.674285c-21.211429 0-9.508571-3.657143-17.554286-30.72h-13.897143c0.731429-2.194286 3.657143-5.851429 5.851429-8.045715h37.302857l5.851428-19.017142h-34.377142l5.12-16.822858h34.377142l5.851429-21.942857h-101.668571l-5.851429 21.942857h35.84l-5.12 16.822858h-37.302857l-5.851429 19.017142h32.182857c-2.194286 3.657143-5.851429 8.777143-8.777142 13.165715-15.36 21.942857-13.897143 29.257143-35.84 29.257143l2.925714-8.777143-8.777143-0.731429 32.182857-110.445714c17.554286 0 8.777143 0 14.628572-8.777143 0.731429 11.702857-2.194286 18.285714 8.777142 22.674286 6.582857 2.194286 22.674286 0.731429 29.988572 0.731428 2.925714-0.731429 6.582857-18.285714 8.045714-21.211428-5.12-0.731429-16.822857 3.657143-12.434286-16.091429-14.628571-0.731429-66.56-0.731429-81.92 2.194286-8.777143 0.731429-12.434286 5.12-19.748571 8.045714l3.657143-11.702857z m-5.851429 22.674286h25.6l-6.582857 19.748571c-3.657143 2.194286-9.508571 2.194286-14.628571 2.925714-3.657143 2.194286-8.045714 3.657143-12.434286 5.12l8.045714-27.794285z m-21.942857 71.68c3.657143-0.731429 8.045714-3.657143 12.434286-5.12 5.12-2.194286 10.971429-2.194286 14.628571-3.657143l6.582857-19.748572h-25.6l-8.045714 28.525715z m-11.702857 40.228571c0.731429-3.657143 5.851429-22.674286 8.045714-24.868571h25.6l-8.045714 24.868571h-25.6zM575.634286 588.8h-29.257143c-5.851429 14.628571-10.971429 35.108571-14.628572 51.931429-3.657143 11.702857-29.988571 98.011429-29.988571 102.4 0 3.657143 5.12 8.045714 8.045714 8.777142 5.851429 2.194286 40.228571 0.731429 46.811429 0.731429 0.731429-3.657143 2.194286-8.045714 3.657143-11.702857l2.925714-11.702857c-8.045714 0-17.554286 2.925714-24.137143 0-2.194286-8.045714 11.702857-41.691429 13.897143-52.662857 18.285714-0.731429 57.782857 2.194286 70.217143-2.925715 6.582857-2.925714 8.777143-5.12 12.434286-10.971428 5.12-8.045714 20.48-61.44 22.674285-72.411429-5.851429-0.731429-40.96-0.731429-49.005714 0-26.331429 2.925714-25.6 8.777143-35.84 13.897143l2.194286-15.36z m-5.12 24.137143h49.737143l-3.657143 11.702857c-23.405714-0.731429-37.302857 0-52.662857 11.702857l6.582857-23.405714z m-10.24 32.182857l49.737143 0.731429-2.925715 10.24h-49.005714l2.194286-10.971429z m32.914285 65.097143c29.988571-0.731429 35.108571 0.731429 40.96-29.988572h-23.405714c-2.194286 5.12-2.194286 8.777143-5.12 13.165715h-11.702857v-11.702857h-29.257143c0 19.017143-0.731429 40.96-0.731428 59.977142 0 10.971429 8.777143 10.971429 18.285714 10.971429 8.045714 0.731429 21.211429 0.731429 28.525714 0l6.582857-21.942857c-6.582857 0.731429-17.554286 2.194286-23.405714 0-1.462857-5.851429-1.462857-14.628571-0.731429-20.48z m-69.485714-71.68H438.125714l-5.851428 21.211428h19.748571l-5.851428 18.285715h-19.748572l-5.851428 21.942857H438.857143c-0.731429 7.314286-5.12 18.285714-6.582857 24.868571-8.045714 24.137143-5.851429 29.257143 22.674285 29.257143h29.988572l8.045714-24.137143c-38.765714 3.657143-29.257143 7.314286-21.211428-29.988571h35.108571l6.582857-21.942857h-35.108571l5.12-18.285715h35.108571l5.12-21.211428z m-84.114286-24.868572l-5.851428 21.211429c15.36 0 19.748571 0.731429 32.914286-5.12 5.851429-2.925714 3.657143-2.925714 6.582857-5.12 5.851429-3.657143 40.96-0.731429 51.2-2.194286l5.851428-21.942857h-34.377143l5.12-11.702857c-40.228571 0-32.182857-5.12-43.154285 16.822857-5.12 8.777143-5.12 7.314286-18.285715 8.045714zM255.268571 381.074286h-38.034285c-0.731429 10.24-22.674286 107.52-26.331429 116.297143-3.657143 10.24-12.434286 19.748571-25.6 21.942857-38.034286 3.657143-23.405714-38.765714-18.285714-62.902857 5.851429-24.137143 12.434286-51.931429 19.748571-76.068572h-45.348571c-2.194286 5.12-22.674286 96.548571-23.405714 106.788572-2.925714 21.211429-5.851429 38.765714 8.777142 49.737142 13.897143 8.777143 35.84 10.971429 54.125715 8.777143 43.154286-2.925714 58.514286-24.137143 68.754285-60.708571l25.6-103.862857z m-16.091428 166.034285h35.84c2.194286-5.12 9.508571-49.737143 12.434286-61.44 0.731429-5.12 0-5.12 5.12-7.314285 28.525714-10.971429 3.657143 38.034286 0.731428 68.754285H329.142857l3.657143-18.285714c5.851429-33.645714 25.6-76.8-5.851429-79.725714-14.628571-0.731429-23.405714 5.12-32.914285 10.24 0.731429-3.657143 2.194286-7.314286 2.194285-10.971429-5.851429 0-25.6 3.657143-32.914285 5.12-8.045714 0.731429-5.851429 3.657143-6.582857 11.702857-0.731429 5.851429-2.194286 11.702857-2.925715 16.822858l-14.628571 65.097142z" fill="#FFFFFF" p-id="4339"></path></svg>