<svg t="1577349472693" class="icon" viewBox="0 0 1024 1024" version="1.1" xmlns="http://www.w3.org/2000/svg" p-id="2492" width="200" height="200"><path d="M512 967.112649c251.350486 0 455.112649-203.762162 455.112649-455.112649S763.350486 56.887351 512 56.887351 56.887351 260.649514 56.887351 512 260.649514 967.112649 512 967.112649zM512 1024C229.223784 1024 0 794.776216 0 512S229.223784 0 512 0s512 229.223784 512 512-229.223784 512-512 512z" fill="#00D2C3" p-id="2493"></path><path d="M512 512m-512 0a512 512 0 1 0 1024 0 512 512 0 1 0-1024 0Z" fill="#00D2C3" p-id="2494"></path><path d="M255.114378 431.878919a32.560432 32.560432 0 1 0-46.91027 45.166703l228.448865 237.194378 378.56173-374.092108a32.560432 32.560432 0 1 0-45.76173-46.301406L437.801514 621.581838 255.114378 431.878919z" fill="#FFFFFF" p-id="2495"></path></svg>