<svg t="1577336413831" class="icon" viewBox="0 0 1024 1024" version="1.1" xmlns="http://www.w3.org/2000/svg" p-id="1828" width="200" height="200"><path d="M432 197.44h214.56a109.28 109.28 0 0 1 109.28 109.28v424a158.88 158.88 0 0 1-158.88 158.88h-115.52a158.88 158.88 0 0 1-158.88-158.88v-424A109.28 109.28 0 0 1 432 197.44z" fill="#39B54A" p-id="1829"></path><path d="M727.2 196.32a28.8 28.8 0 0 1-10.56 20c-27.52 25.6-98.72 42.72-177.12 42.72s-149.76-17.12-177.12-42.72a28 28 0 0 1-10.4-20c0-30.56 75.52-63.2 188-63.2s187.2 32.64 187.2 63.2z" fill="#F6F6F6" p-id="1830"></path><path d="M539.2 122.72c-112 0-198.4 32-198.4 73.6a38.4 38.4 0 0 0 14.08 27.68c29.6 27.68 101.92 45.6 184.32 45.6s154.4-17.6 184.16-45.6a38.56 38.56 0 0 0 14.24-28c0-40.96-87.04-73.28-198.4-73.28zM720 220.48c-27.68 25.76-98.08 44.16-180.64 44.16s-153.12-18.4-180.8-44.16a33.92 33.92 0 0 1-12.48-24.16C345.92 158.56 432 128 539.2 128s193.12 30.72 193.12 68.48a33.28 33.28 0 0 1-12.32 24z" fill="#FFFFFF" p-id="1831"></path><path d="M539.2 128C432 128 345.92 158.56 345.92 196.32a33.92 33.92 0 0 0 12.48 24.16c27.68 25.76 98.08 44.16 180.8 44.16s152.96-18.4 180.8-44.16a33.28 33.28 0 0 0 12.48-24.16C732.32 158.56 645.92 128 539.2 128z m177.44 88.48c-27.52 25.6-98.72 42.72-177.12 42.72s-149.76-17.12-177.12-42.72a28 28 0 0 1-10.4-20.16c0-30.56 75.52-63.2 188-63.2s188 32 188 63.2a28.8 28.8 0 0 1-11.36 20z" fill="#E5E5E5" p-id="1832"></path><path d="M716.64 216.32c-27.52 25.6-98.56 42.72-177.12 42.72s-149.76-17.12-177.12-42.72c23.2-26.88 93.92-46.4 177.44-46.4s153.6 19.52 176.8 46.4z" fill="#E5E5E5" p-id="1833"></path><path d="M481.44 185.76c-40.64-1.6-74.08 7.68-74.88 20.8s32 24.8 72.16 26.24 73.92-7.68 74.72-20.8-31.52-24.8-72-26.24z m-13.6 25.76a17.92 17.92 0 0 1-19.84 8.96 11.84 11.84 0 0 1-3.68-18.08 17.28 17.28 0 0 1 19.68-8.96c6.56 2.56 8.32 10.56 3.84 18.08z m45.12 7.36a18.4 18.4 0 0 1-20.64 7.52c-6.24-3.04-7.04-11.2-1.92-18.24a17.92 17.92 0 0 1 20.64-7.52c6.24 2.88 7.04 11.04 1.92 18.24z" fill="#B2B2B2" p-id="1834"></path><path d="M609.92 404.32a35.68 35.68 0 0 1-6.24-1.44 13.76 13.76 0 0 0-1.6 2.56 98.56 98.56 0 0 1-12.8 16 129.44 129.44 0 0 1-16 14.4 159.04 159.04 0 0 1-19.84 12.48 176 176 0 0 1-22.56 10.08 167.68 167.68 0 0 1-41.6 10.08 11.68 11.68 0 0 0-0.8 9.44 27.36 27.36 0 0 0 5.12 7.04c14.88 13.92 48 14.4 78.24-2.08A76.64 76.64 0 0 0 608 441.44v-1.12a107.2 107.2 0 0 0 3.68-14.08 48 48 0 0 0 0-15.04c0.16-2.56 0.16-5.28-1.76-6.88z" fill="#009245" p-id="1835"></path><path d="M612.16 404.96a160.96 160.96 0 0 1-76 68.96 196.48 196.48 0 0 1-43.04 10.56 24.64 24.64 0 0 1-5.28-7.04 11.68 11.68 0 0 1 0.8-9.44 42.08 42.08 0 0 0 2.56-8 71.36 71.36 0 0 1 41.92-52.8 83.84 83.84 0 0 1 64-6.88 59.2 59.2 0 0 1 6.4 2.08z" fill="#FFE81A" p-id="1836"></path><path d="M722.08 496a101.12 101.12 0 0 1 5.28-71.36l16-32-28.64 20.32a51.2 51.2 0 0 1-17.44 8.16 59.84 59.84 0 0 1-66.56-31.2l-9.76-17.76-5.76 19.52a64 64 0 0 1-10.4 20.32 144 144 0 0 1-78.72 48 171.2 171.2 0 0 1-42.24 5.92 106.88 106.88 0 0 1-61.44-16l-16-11.36 3.36 19.68a159.04 159.04 0 0 1-1.28 58.24A137.6 137.6 0 0 1 352 608l-27.04 16 32-1.44a112.96 112.96 0 0 1 47.2 8.96A114.88 114.88 0 0 1 441.44 656l9.92 10.24 4.16-13.6c14.88-49.44 65.76-94.24 129.44-114.24a209.92 209.92 0 0 1 140.96 2.08l24.8 10.4L736 528a116.48 116.48 0 0 1-13.92-32z m-142.08 26.88A220.32 220.32 0 0 0 448 647.84a207.04 207.04 0 0 0-39.84-27.36 272 272 0 0 0-46.88-5.6c22.08-20.96 56.48-59.2 64-93.76a177.76 177.76 0 0 0 3.2-48 137.44 137.44 0 0 0 58.72 10.08 190.56 190.56 0 0 0 43.68-6.24 153.76 153.76 0 0 0 80-61.12 196.32 196.32 0 0 0 12.8-20.32c19.2 22.72 46.56 45.12 74.4 37.76 0 0 19.68-9.44 20.48-9.76a257.6 257.6 0 0 0-14.56 68.16 36.16 36.16 0 0 0 1.28 8.48 133.28 133.28 0 0 0 6.08 18.08 237.12 237.12 0 0 0-131.36 4.48z" fill="#F2F2F2" p-id="1837"></path><path d="M682.4 468.32a3.68 3.68 0 0 1 2.08-2.24 3.36 3.36 0 0 1 3.04 0 3.2 3.2 0 0 1 2.24 2.08 3.68 3.68 0 0 1 0 3.2 3.84 3.84 0 0 1-5.12 2.08 3.2 3.2 0 0 1-2.24-2.08 3.36 3.36 0 0 1 0-3.04z" fill="#0060AE" p-id="1838"></path><path d="M681.44 467.84a5.12 5.12 0 0 1 2.08-1.6h1.12a5.28 5.28 0 0 1 2.72 0 5.6 5.6 0 0 1 1.76 2.08 5.28 5.28 0 0 1 0 2.72 5.6 5.6 0 0 1-2.72 2.72 5.28 5.28 0 0 1-3.84 0 4.48 4.48 0 0 1-1.76-2.08 5.6 5.6 0 0 1 0-2.72z" fill="#0060AE" p-id="1839"></path><path d="M682.4 468.32a3.68 3.68 0 0 1 2.08-2.24 3.36 3.36 0 0 1 3.04 0 3.2 3.2 0 0 1 2.24 2.08 3.68 3.68 0 0 1 0 3.2 3.84 3.84 0 0 1-5.12 2.08 3.2 3.2 0 0 1-2.24-2.08 3.36 3.36 0 0 1 0-3.04z" fill="#FFFFFF" p-id="1840"></path><path d="M684.8 472.8a3.36 3.36 0 0 0 4.32-1.76 3.36 3.36 0 0 0-1.76-4.32 3.36 3.36 0 0 0-2.56 6.08z" fill="#0060AE" p-id="1841"></path><path d="M686.88 469.6a1.28 1.28 0 0 0 0-1.44c0-0.8 0-0.8-1.44 0l-1.44 0.8 0.96 3.52v-1.6l1.12 1.12-0.96-1.12z" fill="#FFFFFF" p-id="1842"></path><path d="M685.44 469.76v-0.96h0.8-0.96zM625.44 476.96c-0.96 20.64 8.48 28.8 17.76 29.44 14.56 1.28 32-14.88 35.52-40.8a2.88 2.88 0 0 0-0.96-2.24 2.24 2.24 0 0 0-2.4 0l-2.24 0.8a2.56 2.56 0 0 0-1.6 1.76c-4.48 14.88-11.84 20.64-16.96 19.84a6.08 6.08 0 0 1-4.16-3.04 16 16 0 0 1-1.28-6.56A44 44 0 0 0 672 442.4a15.04 15.04 0 0 0-1.6-6.4 10.4 10.4 0 0 0-9.44-5.12 45.12 45.12 0 0 0-36 46.08zM442.88 502.56a40 40 0 0 0-16 38.24A32 32 0 0 0 448 564.96c14.08 4.96 16 8.48 16 16a16 16 0 0 1-12.96 13.28 19.04 19.04 0 0 1-20.48-10.72l-1.76-3.04a2.56 2.56 0 0 0-4.8 1.44v33.44a2.4 2.4 0 0 0 1.6 2.4 41.44 41.44 0 0 0 38.4-5.44 49.76 49.76 0 0 0 22.08-39.04 32.96 32.96 0 0 0-25.44-36.16c-7.04-2.4-11.2-5.92-12-10.24s3.2-9.28 8.32-11.36a9.76 9.76 0 0 1 12.64 4l2.4 3.2a2.72 2.72 0 0 0 2.88 0 2.72 2.72 0 0 0 1.76-2.56l-1.44-20a3.2 3.2 0 0 0-1.44-2.08 28.8 28.8 0 0 0-29.6 3.84z" fill="#0060AE" p-id="1843"></path><path d="M616.64 430.24A100.32 100.32 0 0 1 592 466.72l-21.6 12.32a2.24 2.24 0 0 0-1.28 2.4s3.68 55.04 4.32 62.56a2.08 2.08 0 0 0 1.28 1.92 2.24 2.24 0 0 0 2.4 0l23.68-13.44a2.4 2.4 0 0 0 1.28-2.56 2.4 2.4 0 0 0-1.76-1.28 3.2 3.2 0 0 1-2.24-1.92 67.68 67.68 0 0 1-3.36-22.88v-4.16L593.28 480a2.24 2.24 0 0 0 2.24 0l5.28-2.88 3.52 50.08a2.24 2.24 0 0 0 0 1.12s0 0.8 1.12 0.96A2.24 2.24 0 0 0 608 528l23.52-13.44a2.4 2.4 0 0 0 1.28-2.56 2.24 2.24 0 0 0 0-0.96 2.24 2.24 0 0 0-1.76-1.12 3.52 3.52 0 0 1-2.24-1.92 72 72 0 0 1-3.36-22.88v-3.52S624 468 624 464a17.6 17.6 0 0 0 11.04-16 2.24 2.24 0 0 0-1.12-2.24 2.4 2.4 0 0 0-2.56 0l-8.48 4.64c0-5.44-1.12-18.4-1.12-18.4v-0.96a2.4 2.4 0 0 0-1.76-1.28 2.72 2.72 0 0 0-2.72 1.44zM500 522.08a2.56 2.56 0 0 0-1.44-1.12 2.72 2.72 0 0 0-1.92 0l-19.68 11.2a2.72 2.72 0 0 0-1.12 2.72 2.4 2.4 0 0 0 2.08 1.92c4.16 0 4.96 13.6 5.6 24.8v4.32l4 56.8a2.56 2.56 0 0 0 1.28 2.08 2.88 2.88 0 0 0 2.56 0l23.52-13.28a2.72 2.72 0 0 0 1.28-2.72 2.4 2.4 0 0 0-1.76-1.28s-1.28 0-2.24-1.92a67.84 67.84 0 0 1-3.36-22.72v-2.56l11.36 3.52a2.72 2.72 0 0 0 3.04-1.28c13.92-26.4 16.96-49.76 8-62.56a16 16 0 0 0-16-7.68 21.44 21.44 0 0 0-14.88 10.56z m10.24 9.12c0.8 0 1.44 0 1.76 1.28a16 16 0 0 1 1.28 9.6 42.24 42.24 0 0 1-6.08 16c0-6.88-0.8-14.88-0.8-14.88 0-7.84 2.08-12.32 3.84-12.8z" fill="#0060AE" p-id="1844"></path><path d="M551.84 492.48a2.56 2.56 0 0 0-1.28-0.96 3.04 3.04 0 0 0-2.08 0l-19.68 11.2a2.4 2.4 0 0 0 0.8 4.64c4.32 0.8 4.96 13.6 5.6 24.8v4.32l1.92 28a2.56 2.56 0 0 0 1.28 2.08 3.52 3.52 0 0 0 2.56 0l23.52-13.44a2.72 2.72 0 0 0 1.28-2.72 1.92 1.92 0 0 0-1.76-1.12 4.16 4.16 0 0 1-2.24-1.92 72 72 0 0 1-3.36-22.88v-4.16a17.76 17.76 0 0 1 8.16-16 5.44 5.44 0 0 1 6.24 0 2.56 2.56 0 0 0 3.84-3.2l-8.48-18.72a2.24 2.24 0 0 0-1.44-1.28 2.4 2.4 0 0 0-2.08 0 37.28 37.28 0 0 0-12.64 12.32zM628.48 468c-0.96 20.64 8.48 28.8 17.76 29.44 14.56 1.28 32-14.88 35.52-40.8a2.88 2.88 0 0 0-0.96-2.24 2.24 2.24 0 0 0-2.4 0l-2.24 0.8a2.56 2.56 0 0 0-1.6 1.76c-4.48 14.88-11.84 20.64-16.96 19.84a6.08 6.08 0 0 1-4.16-3.04 16 16 0 0 1-1.28-6.56 44 44 0 0 0 23.36-33.28 15.04 15.04 0 0 0-1.6-6.4 10.4 10.4 0 0 0-9.44-5.12 45.12 45.12 0 0 0-36 46.08z m25.6-30.72a7.36 7.36 0 0 1 0 3.2 24 24 0 0 1-3.36 13.76 32 32 0 0 1 2.56-16.96zM445.92 498.88a40 40 0 0 0-16 38.24 32 32 0 0 0 21.28 24.16c14.08 4.96 16 8.32 16 16a16 16 0 0 1-12.96 13.44 19.36 19.36 0 0 1-22.24-11.36l-1.12-3.36a2.56 2.56 0 0 0-2.88-1.12 2.56 2.56 0 0 0-1.92 2.4v33.6a2.4 2.4 0 0 0 1.6 2.4 41.92 41.92 0 0 0 38.56-5.28 49.76 49.76 0 0 0 22.08-39.04 32.96 32.96 0 0 0-25.44-36.16c-7.04-2.4-11.2-5.92-12-10.24s3.2-9.28 8.32-11.36a9.76 9.76 0 0 1 12.64 4l2.4 3.2a2.72 2.72 0 0 0 2.88 0.8 2.72 2.72 0 0 0 1.76-2.56l-1.44-20a3.2 3.2 0 0 0-1.44-2.08 28.8 28.8 0 0 0-29.6 3.84z" fill="#0060AE" p-id="1845"></path><path d="M503.04 513.12a2.88 2.88 0 0 0-1.28-1.12 3.04 3.04 0 0 0-2.08 0l-19.68 11.2a2.72 2.72 0 0 0-1.12 2.72 2.4 2.4 0 0 0 2.08 1.92c4.16 0 4.96 13.6 5.6 24.8v4.32l4 56.8a2.56 2.56 0 0 0 1.28 2.08 2.88 2.88 0 0 0 2.56 0l23.52-13.28a2.72 2.72 0 0 0 1.28-2.72v-0.8a2.4 2.4 0 0 0-1.76-1.28s-1.28 0-2.24-1.92a67.84 67.84 0 0 1-3.2-22.72v-2.56l11.36 3.52a2.72 2.72 0 0 0 3.04-1.28c13.92-26.4 16.96-49.76 8-62.56a16 16 0 0 0-16-7.68 21.44 21.44 0 0 0-14.88 10.56z m10.24 9.12c0.8 0 1.44 0 1.76 1.28a16 16 0 0 1 1.28 9.6 42.24 42.24 0 0 1-6.08 16c0-6.88-0.8-14.88-0.8-14.88 0-7.84 2.08-12.32 3.84-12.8z" fill="#0060AE" p-id="1846"></path><path d="M554.88 483.52a2.56 2.56 0 0 0-1.28-0.96 3.04 3.04 0 0 0-2.08 0l-19.68 11.2a2.4 2.4 0 0 0 0 4.64c4.32 0.8 4.96 13.6 5.6 24.8v4.32l1.92 28a2.56 2.56 0 0 0 1.28 2.08 3.52 3.52 0 0 0 2.56 0l24.64-13.6a2.72 2.72 0 0 0 1.28-2.72v-0.8a1.92 1.92 0 0 0-1.76-1.12 4.16 4.16 0 0 1-2.24-1.92 72 72 0 0 1-3.36-22.88v-4.16a17.76 17.76 0 0 1 8.16-16 5.44 5.44 0 0 1 6.24 0 2.56 2.56 0 0 0 3.84-3.2l-8.48-18.72a1.92 1.92 0 0 0-1.44-1.28 2.4 2.4 0 0 0-2.08 0 37.28 37.28 0 0 0-12.64 12.32z" fill="#0060AE" p-id="1847"></path><path d="M636.8 435.84a2.4 2.4 0 0 0-2.56 0l-8.48 4.64c0-5.44-1.12-18.4-1.12-18.4v-0.96a2.4 2.4 0 0 0-1.76-1.28 2.72 2.72 0 0 0-2.72 1.44 100.32 100.32 0 0 1-24.16 36.48l-21.6 12.32a2.24 2.24 0 0 0-1.28 2.4s3.68 55.04 4.32 62.56a2.08 2.08 0 0 0 1.28 1.92 2.24 2.24 0 0 0 2.4 0l23.68-13.44a2.4 2.4 0 0 0 1.28-2.56 1.28 1.28 0 0 0 0-0.8 2.4 2.4 0 0 0-1.76-1.28 3.2 3.2 0 0 1-2.24-1.92 67.68 67.68 0 0 1-3.36-22.88v-4.16l-1.28-19.36a2.24 2.24 0 0 0 2.24 0l5.28-2.88 3.04 49.92a10.24 10.24 0 0 0 0 1.12l1.12 0.96a2.24 2.24 0 0 0 2.4 0l23.52-13.44a2.4 2.4 0 0 0 1.28-2.56 1.28 1.28 0 0 0 0-0.8 2.08 2.08 0 0 0-1.76-1.28 3.52 3.52 0 0 1-2.24-1.92 72 72 0 0 1-3.36-22.88V464l2.88-1.6-1.92-3.36-1.44 0.8v-5.6a17.6 17.6 0 0 0 11.04-16 2.24 2.24 0 0 0-1.12-2.24z" fill="#0060AE" p-id="1848"></path><path d="M679.2 456.32c-5.12 42.72-50.08 55.04-48 11.68 1.76-38.56 41.6-55.52 42.08-34.56 0 16-16.96 28.16-23.36 32-1.28 18.08 18.88 20.8 27.36-8.16l2.24-0.8z m-21.76-16c0-8.48-9.76-12.96-8.32 19.52a21.44 21.44 0 0 0 8.32-19.52zM428.64 611.2a44.32 44.32 0 0 0 56.64-41.92 30.4 30.4 0 0 0-23.68-33.6c-8.32-2.88-12.8-7.2-13.76-12.16-1.76-9.44 16-23.36 25.6-9.44l2.4 3.2-1.44-20c-17.44-9.12-46.56 10.4-42.56 39.52a29.12 29.12 0 0 0 19.68 22.08c14.08 5.12 17.92 9.12 16.96 18.08a19.84 19.84 0 0 1-37.92 3.68l-1.92-3.04v33.6z" fill="#FFFFFF" p-id="1849"></path><path d="M633.44 504c-6.88-1.12-6.88-16-7.84-32l-1.6-19.04a16 16 0 0 0 11.36-15.04l-11.36 6.88-1.44-22.4a109.44 109.44 0 0 1-25.44 37.6l-21.6 12.32s3.84 54.88 4.48 62.4l23.52-13.44c-6.88-1.12-7.04-16-7.84-31.2l-1.76-24.8 4 2.88 8.64-4.8 3.84 54.08 23.52-13.44zM481.28 525.6c6.88 1.12 7.04 16 8 32l4 56.8 23.68-13.44c-7.04-1.28-7.04-16-8-32l-2.08-33.92c-1.12-18.72 13.28-21.76 12-1.76a76.96 76.96 0 0 1-15.04 32l19.84 6.08c34.24-64-9.6-83.52-21.6-50.72a11.68 11.68 0 0 0-1.12-6.4l-19.68 11.2z" fill="#FFFFFF" p-id="1850"></path><path d="M533.12 496c6.88 1.12 7.04 16 8 32l1.92 28 23.52-13.44c-6.88-1.12-6.88-16-7.84-32s11.84-23.52 18.56-18.56l-8.48-18.72a32 32 0 0 0-14.88 17.92 11.68 11.68 0 0 0-1.12-6.4l-19.68 11.2zM458.08 504.16a19.68 19.68 0 0 0-11.04 12.16 20 20 0 0 1 10.08-9.44 14.56 14.56 0 0 1 16 2.4v-3.84a15.04 15.04 0 0 0-14.56-1.28z" fill="#FFFFFF" p-id="1851"></path><path d="M648.8 789.12a12.96 12.96 0 0 1-8.64-3.2 13.28 13.28 0 0 1-1.28-17.92 109.12 109.12 0 0 0 25.12-64 13.28 13.28 0 0 1 12.96-13.28 13.12 13.12 0 0 1 13.12 12.96 134.08 134.08 0 0 1-32 81.6 12.8 12.8 0 0 1-9.28 3.84z" fill="#FFFFFF" p-id="1852"></path><path d="M627.84 804.96m-14.08 0a14.08 14.08 0 1 0 28.16 0 14.08 14.08 0 1 0-28.16 0Z" fill="#FFFFFF" p-id="1853"></path><path d="M505.76 292.96c-107.04 0-215.2-29.6-215.2-86.24 0-16 8.64-37.92 50.08-57.12a16 16 0 0 1 13.12 28.64c-19.52 9.12-32 20-32 28.48 0 22.4 71.52 54.72 183.68 54.72 12.32 0 24.64 0 36.64-1.12a16 16 0 0 1 2.24 32c-12.48 0.32-25.6 0.64-38.56 0.64z" fill="" p-id="1854"></path><path d="M590.72 286.24a16 16 0 0 1-2.56-32c65.76-11.04 101.12-33.12 101.12-48 0-22.24-71.52-54.72-183.52-54.72a537.12 537.12 0 0 0-63.2 3.68 16 16 0 0 1-17.6-13.76 16 16 0 0 1 13.76-17.44c121.92-14.88 282.08 13.44 282.08 82.24 0 36.32-48 66.08-128 80zM387.84 165.6A16 16 0 0 1 384 134.56l13.92-3.2a16 16 0 0 1 6.72 30.72l-12.64 3.04a16 16 0 0 1-4.16 0.48zM289.12 434.4a16 16 0 0 1-16-16v-100.8a125.92 125.92 0 0 1 41.12-92.64A16 16 0 0 1 336 248.32a93.44 93.44 0 0 0-30.88 69.28v100.96a16 16 0 0 1-16 15.84zM289.12 595.36a16 16 0 0 1-16-16v-113.92a16 16 0 1 1 32 0v114.24a16 16 0 0 1-16 15.68zM576 884.32h-141.28a161.76 161.76 0 0 1-161.44-161.44v-101.12a16 16 0 1 1 32 0v101.12a130.08 130.08 0 0 0 129.92 129.92H576a130.08 130.08 0 0 0 129.92-129.92 16 16 0 1 1 32 0A161.76 161.76 0 0 1 576 884.32z" fill="" p-id="1855"></path><path d="M722.24 695.2a16 16 0 0 1-16-16v-361.6a93.44 93.44 0 0 0-30.88-69.28 16 16 0 0 1 21.28-23.36 125.92 125.92 0 0 1 41.12 92.64v361.92a16 16 0 0 1-15.52 15.68z" fill="" p-id="1856"></path><path d="M606.56 200.96a11.2 11.2 0 0 1-5.92-1.76 103.04 103.04 0 0 0-53.92-8.64 10.4 10.4 0 1 1-1.76-20.8c4.32 0 44.48-3.68 67.52 12a10.4 10.4 0 0 1 2.72 14.56 10.24 10.24 0 0 1-8.64 4.64z" fill="#1A1A1A" p-id="1857"></path><path d="M630.4 198.56m-7.84 0a7.84 7.84 0 1 0 15.68 0 7.84 7.84 0 1 0-15.68 0Z" fill="" p-id="1858"></path></svg>