<svg t="1577341100246" class="icon" viewBox="0 0 1024 1024" version="1.1" xmlns="http://www.w3.org/2000/svg" p-id="2480" width="200" height="200"><path d="M471.552 333.824v4.096h4.096l2.048 1.536 6.144 2.048h56.32l6.144-2.048 2.048-1.536h2.048l2.048-4.096 1.536-2.048V38.4l-19.968-2.048h-44.032l-22.016 2.048v285.184l2.048 8.192z" fill="#009174" p-id="2481"></path><path d="M984.064 450.048l-2.048-19.968-4.096-19.968-5.632-19.968-12.288-38.4-6.144-19.968-7.68-18.432-20.48-35.84-9.728-16.384-10.24-17.92-11.776-15.872-12.288-15.872-26.112-28.672-14.336-13.824-15.872-14.336-13.824-13.824-16.384-12.288-15.872-9.728-17.92-12.288-16.384-9.728-17.92-8.192-17.92-10.24-20.48-7.68-17.92-6.144-19.968-6.144-40.448-11.776V351.744l-4.096 6.144-3.584 2.048-6.144 2.048-8.192 2.048H534.016l-4.096 2.048-2.048 3.584-2.048 4.096v138.752l2.048-2.048 2.048-2.048h118.784l8.192-2.048h3.584l4.096-2.048 2.048-4.096 2.048-2.048 2.048-3.584V164.864l24.064 12.288 24.064 13.824 22.016 16.384 20.48 15.872 19.968 17.92 17.92 19.968 17.92 22.528 16.384 19.968 11.776 24.064 14.336 24.064 9.728 26.112 4.096 12.288 4.096 11.776L885.76 430.08l6.144 28.16v14.336l2.048 13.824 2.048 28.16-2.048 36.352-2.048 17.92-4.096 15.872-2.048 18.432-6.144 15.872-10.24 32.256-5.632 15.872-8.192 16.384-8.192 13.824-7.68 15.872-8.192 14.336-10.24 13.824-9.728 12.288-12.288 13.824-9.728 12.288-12.288 11.776-26.112 22.528-14.336 9.728-11.776 10.24-14.336 7.68-15.872 8.192-13.824 8.192-16.384 8.192-15.872 5.632-8.192 4.096-7.68 2.048-16.384 4.096-15.872 6.144-18.432 2.048-17.92 4.096v-225.28h84.48l8.192-2.048 3.584-2.048h4.096l2.048-4.096 2.048-2.048 2.048-3.584v-142.848l-4.096 4.096-6.144 4.096-5.632 2.048-6.144 2.048H534.016l-4.096 1.536-2.048 4.096-2.048 4.096v132.608h-29.696v-136.704l-4.096-4.096-4.096-1.536H373.248l-6.144-2.048-5.632-2.048-6.144-4.096-2.048-2.048-2.048-2.048v136.704l2.048 6.144v3.584l2.048 2.048 4.096 4.096h4.096l1.536 2.048 8.192 2.048h84.48v225.28l-17.92-4.096-16.384-2.048-15.872-6.144-17.92-4.096-16.384-6.144-15.872-5.632-14.336-8.192-15.872-8.192-28.16-15.872-13.824-10.24-14.336-9.728-24.064-22.528-12.288-11.776-11.776-12.288-10.24-13.824-9.728-14.336-20.48-26.112-15.872-29.696-6.144-16.384-5.632-15.872-4.096-8.192-2.048-8.192-6.144-15.872-4.096-15.872-4.096-18.432-2.048-17.92-2.048-15.872-2.048-18.432v-17.92l2.048-28.16v-13.824l2.048-14.336L138.24 430.08l6.144-26.112 10.24-26.112 3.584-13.824 6.144-12.288 12.288-24.064 13.824-22.016 15.872-22.016 16.384-22.528 17.92-19.968 20.48-17.92 22.016-15.872 22.016-16.384 22.016-13.824 24.064-12.288v323.584l2.048 6.144v3.584l2.048 2.048 4.096 4.096 2.048 2.048h3.584l8.192 2.048h118.784l4.096 4.096V369.664l-4.096-3.584-4.096-2.048H433.664l-6.144-2.048-6.144-2.048-5.632-2.048-2.048-2.048-2.048-4.096V46.592l-19.968 5.632-20.48 6.144-19.968 6.144-17.92 6.144-18.432 7.68-17.92 10.24-17.92 8.192-17.92 9.728-16.384 12.288-15.872 11.776-32.256 24.064-14.336 14.336-13.824 13.824-13.824 14.336-12.288 14.336-12.288 15.872-11.776 15.872-12.288 17.92-9.728 16.384-10.24 17.92-8.192 17.92-7.68 18.432-8.192 19.968-12.288 38.4-3.584 19.968-4.096 19.968-4.096 19.968-2.048 22.528-2.048 19.968v46.08l2.048 24.064 4.096 24.064 4.096 24.064 5.632 22.016 6.144 24.064 8.192 22.528 8.192 19.968 9.728 22.016 10.24 19.968 11.776 20.48 12.288 19.968 11.776 17.92 14.336 17.92 15.872 18.432 16.384 15.872 15.872 16.384 17.92 13.824 18.432 13.824 17.92 14.336 19.968 12.288 20.48 11.776 19.968 10.24 19.968 9.728 22.016 8.192 22.016 8.192 22.528 6.144 24.064 5.632 24.064 4.096 24.064 2.048 24.064 2.048 24.064 2.048 24.064-2.048 24.064-2.048 24.064-2.048 24.064-4.096 22.528-5.632 22.016-6.144 24.064-8.192 19.968-8.192 22.016-9.728 19.968-10.24 20.48-11.776 19.968-12.288 17.92-14.336 17.92-13.824 18.432-13.824 15.872-16.384 16.384-15.872 13.824-18.432 14.336-17.92 13.824-17.92 12.288-19.968 11.776-20.48 10.24-19.968 9.728-22.016 8.192-19.968 8.192-22.528 6.144-24.064 5.632-22.016 4.096-24.064 2.048-24.064 2.048-24.064V472.576z" fill="#009174" p-id="2482"></path></svg>