<svg t="1577774280155" class="icon" viewBox="0 0 1024 1024" version="1.1" xmlns="http://www.w3.org/2000/svg" p-id="7376" width="200" height="200"><path d="M477.7 646.3l-31.2 0.1-0.1-20.3 31.2-0.1c6.4 0 11.6-5.3 11.6-11.7 0-6.4-5.3-11.6-11.7-11.6l-21 0.1 30.1-41.3c3.8-5.2 2.6-12.5-2.6-16.3s-12.5-2.6-16.3 2.6l-33.1 45.5-33.4-45.3c-3.8-5.2-11.2-6.3-16.3-2.4-5.2 3.8-6.3 11.2-2.4 16.3l30.3 41-21 0.1c-6.4 0-11.6 5.3-11.6 11.7 0 6.4 5.3 11.6 11.7 11.6l31.2-0.1 0.1 20.3-31.2 0.1c-6.4 0-11.6 5.3-11.6 11.7 0 6.4 5.3 11.6 11.7 11.6l31.2-0.1 0.1 34.7c0 6.4 5.3 11.6 11.7 11.6s11.6-5.3 11.6-11.7l-0.1-34.7 31.2-0.1c6.4 0 11.6-5.3 11.6-11.7s-5.3-11.6-11.7-11.6z" fill="#FF931D" p-id="7377"></path><path d="M794 308c-22.7-11.2-41.8-18.6-42.6-18.9-8.3-3.2-17.6 1-20.8 9.3-3.2 8.3 1 17.7 9.3 20.9 0.2 0.1 18.3 7.1 39.6 17.7 16.2 8 29.8 32.8 29.9 54.1l1 278.7c0.1 17.4-11.2 35-28.6 35.1l-16.2 0.1c-17.6 0.1-35.7-17-35.8-34.9L729 451c-0.2-42.7-27.1-77.7-61.6-77.6l-35.8 0.1-0.5-140.7c-0.1-25.4-16.9-52.7-45.2-52.6l-306.9 1c-26.6 0.1-51.9 26.4-51.8 52.9l2 577.2-32 0.1c-8.9 0-16.1 7.3-16.1 16.2 0 8.9 7.3 16.2 16.2 16.1l468.7-1.6c8.9 0 16.1-7.3 16.1-16.2 0-8.9-7.3-16.2-16.2-16.1l-32.6 0.1-1.3-404.1 35.8-0.1c17.4-0.1 29.1 24.2 29.1 45.4l0.8 219.1c0.1 35.8 32.7 67.2 68.2 67.1l16.2-0.1c33.9-0.1 61-29.9 60.9-67.6l-1-278.7c-0.2-33.7-20.7-69.4-48-82.9zM261.6 811.3l-2-577.2c0-8.8 10.7-20.4 19.6-20.5l307.1-1.1c7.8 0 12.7 11 12.8 20.4l2 577.2-339.5 1.2z" fill="#FF931D" p-id="7378"></path><path d="M542.7 285.3c0-8.9-7.3-16.1-16.2-16.1l-185.9 0.7c-8.9 0-16.1 7.3-16.1 16.2l0.5 129.5c0 8.9 7.3 16.1 16.2 16.1l185.9-0.7c8.9 0 16.1-7.3 16.1-16.2l-0.5-129.5z m-32 113.4l-153.5 0.5-0.3-97.1 153.5-0.5 0.3 97.1z" fill="#FF931D" p-id="7379"></path></svg>