<svg xmlns="http://www.w3.org/2000/svg" class="icon" viewBox="0 0 1024 1024" width="32" height="32" t="1577271275368" p-id="4362" version="1.1"><path fill="#2c2c2c" d="M 824.324 693.465 c -47.2491 0 -88.7565 24.5737 -112.445 61.6368 l -307.186 -170.584 c 9.33869 -21.6675 14.5228 -45.5463 14.5228 -70.6388 c 0 -32.6056 -8.74108 -63.1666 -23.9996 -89.4779 l 235.003 -147.359 c 24.2237 33.5112 63.6333 55.322 108.142 55.322 c 73.6494 0 133.355 -59.7048 133.355 -133.355 S 812.011 65.6533 738.361 65.6533 S 605.006 125.358 605.006 199.007 c 0 15.1992 2.54906 29.8007 7.23171 43.4097 L 372.094 393.001 c -32.6476 -35.4995 -79.4761 -57.7523 -131.507 -57.7523 c -98.6539 0 -178.629 79.9755 -178.629 178.629 s 79.9755 178.629 178.629 178.629 c 59.6516 0 112.464 -29.2461 144.907 -74.1733 l 310.425 172.383 c -3.22239 11.4825 -4.94973 23.5903 -4.94973 36.1022 c 0 73.6504 59.7048 133.355 133.355 133.355 s 133.355 -59.7048 133.355 -133.355 S 897.975 693.465 824.324 693.465 Z M 738.361 104.539 c 52.0904 0 94.4696 42.3792 94.4696 94.4696 s -42.3792 94.4696 -94.4696 94.4696 s -94.4696 -42.3792 -94.4696 -94.4696 S 686.271 104.539 738.361 104.539 Z M 240.586 653.621 c -37.3271 0 -72.4194 -14.5361 -98.8135 -40.9302 c -26.3941 -26.3941 -40.9302 -61.4864 -40.9302 -98.8135 c 0 -37.3271 14.5361 -72.4194 40.9302 -98.8135 c 26.3941 -26.3941 61.4864 -40.9302 98.8135 -40.9302 c 37.3271 0 72.4194 14.5361 98.8135 40.9302 c 26.3941 26.3941 40.9302 61.4864 40.9302 98.8135 c 0 37.3271 -14.5361 72.4194 -40.9302 98.8135 C 313.006 639.085 277.914 653.621 240.586 653.621 Z M 824.324 921.289 c -52.0904 0 -94.4696 -42.3792 -94.4696 -94.4696 s 42.3792 -94.4696 94.4696 -94.4696 s 94.4696 42.3792 94.4696 94.4696 S 876.415 921.289 824.324 921.289 Z" p-id="4363" /></svg>