<svg t="1577260808595" class="icon" viewBox="0 0 1158 1024" version="1.1" xmlns="http://www.w3.org/2000/svg" p-id="2342" width="200" height="200"><path d="M297.98418 239.935314a74.473545 74.473545 0 1 1 74.473545-74.473546" fill="#C4EBB0" p-id="2343"></path><path d="M344.55827 161.546845a74.158552 74.158552 0 0 0-65.02373-73.618562 69.028652 69.028652 0 0 1 9.22482-0.629988 74.24855 74.24855 0 0 1 0 148.4971 77.443487 77.443487 0 0 1-9.22482-0.629988A74.158552 74.158552 0 0 0 344.55827 161.546845z" fill="#A2F4C9" p-id="2344"></path><path d="M279.53454 275.169626a109.752856 109.752856 0 0 1-95.578133-163.616805 17.999648 17.999648 0 1 1 31.499385 17.684655 73.798559 73.798559 0 0 0 64.078748 109.932853 17.999648 17.999648 0 1 1 0 35.999297zM371.242749 183.461417a17.999648 17.999648 0 0 1-17.999648-17.999649 73.798559 73.798559 0 0 0-114.477764-61.468799 17.999648 17.999648 0 0 1-19.934611-29.969415A109.752856 109.752856 0 0 1 389.242398 165.461768a17.999648 17.999648 0 0 1-17.999649 17.999649z" p-id="2345"></path><path d="M919.377043 163.076815m-74.473545 0a74.473545 74.473545 0 1 0 148.947091 0 74.473545 74.473545 0 1 0-148.947091 0Z" fill="#C4EBB0" p-id="2346"></path><path d="M965.996133 159.161891A74.203551 74.203551 0 0 0 900.972403 85.49833a68.893654 68.893654 0 0 1 8.999824-0.629988 74.24855 74.24855 0 1 1 0 148.4971 77.30849 77.30849 0 0 1-8.999824-0.629988 74.203551 74.203551 0 0 0 65.02373-73.573563z" fill="#A2F4C9" p-id="2347"></path><path d="M900.927404 272.784672A109.707857 109.707857 0 0 1 805.484268 109.122869a17.999648 17.999648 0 1 1 31.499385 17.729653 73.618562 73.618562 0 1 0 23.489541-25.244507 17.999648 17.999648 0 1 1-19.934611-29.969414 109.707857 109.707857 0 1 1 60.658815 201.146071zM1131.052909 1024h-107.547899a17.999648 17.999648 0 0 1 0-35.999297h116.412726a17.999648 17.999648 0 0 1 0 35.999297zM935.576727 1023.730005a17.999648 17.999648 0 1 1 0-35.999297h37.664264a17.999648 17.999648 0 0 1 0 35.999297zM852.598348 1023.685006c-202.001055 0-409.222007-3.014941-609.918088-5.939884l-116.997715-1.709966a17.999648 17.999648 0 0 1 0.269995-35.999297h0.269995l116.997715 1.709966c211.495869 3.104939 430.1016 6.299877 642.227456 5.939884a17.999648 17.999648 0 0 1 0 35.999297zM78.073475 1015.675163h-0.539989c-15.389699-0.449991-34.82932-0.629988-59.443839-0.494991H17.999648a17.999648 17.999648 0 0 1 0-35.999297c24.974512 0 44.999121 0 60.703815 0.494991a17.999648 17.999648 0 0 1-0.53999 35.999297z" p-id="2348"></path><path d="M930.131833 771.914924a30.869397 30.869397 0 1 1 30.869397-30.869398 30.869397 30.869397 0 0 1-30.869397 30.869398z m0-57.193883a26.369485 26.369485 0 1 0 26.369485 26.324485 26.369485 26.369485 0 0 0-26.369485-26.324485z" fill="#FF6903" p-id="2349"></path><path d="M362.197926 43.199156a21.599578 21.599578 0 1 1 21.599578-21.599578 21.599578 21.599578 0 0 1-21.599578 21.599578z m0-38.699244a17.099666 17.099666 0 1 0 17.099666 17.099666 17.099666 17.099666 0 0 0-17.099666-17.099666z" fill="#7AF4EB" p-id="2350"></path><path d="M1050.999473 191.246265l9.224819 18.674635 20.654597 3.014941-14.939708 14.534716 3.509931 20.564599-18.449639-9.674811-18.44964 9.674811 3.509931-20.564599-14.939708-14.534716 20.654597-3.014941 9.22482-18.674635zM131.622429 439.551415l2.744947-16.019687-11.654773-11.339779 16.109686-2.339954 7.15486-14.534716L152.997012 409.851995l16.064686 2.339954L157.496924 423.531728l2.744946 16.019687L145.977149 431.991563z m14.35472-12.644753l8.414836 4.499912-1.394973-9.449815 6.794867-6.614871-9.584813-1.349974-4.229917-8.504834-4.184918 8.504834-9.404817 1.349974 6.794868 6.614871-1.57497 9.359817z" fill="#FF6903" p-id="2351"></path><path d="M1030.11988 408.772016h-17.999648a4.499912 4.499912 0 0 1 0-8.999824h17.999648a4.499912 4.499912 0 0 1 0 8.999824z" fill="#7AF4EB" p-id="2352"></path><path d="M1021.120056 417.81684a4.499912 4.499912 0 0 1-4.499912-4.499913v-17.999648a4.499912 4.499912 0 0 1 8.999824 0v17.999648a4.499912 4.499912 0 0 1-4.499912 4.499913zM90.358235 575.583758l-12.28476 8.909826 4.679909 14.444718h15.209703l4.724907-14.444718-12.329759-8.909826z" fill="#7AF4EB" p-id="2353"></path><path d="M1071.474073 507.545087m4.049921 0l2.654948 0q4.049921 0 4.049921 4.049921l0 17.099666q0 4.049921-4.049921 4.049921l-2.654948 0q-4.049921 0-4.049921-4.049921l0-17.099666q0-4.049921 4.049921-4.049921Z" fill="#EF3FE7" p-id="2354"></path><path d="M1048.486374 521.515099m2.863726-2.863726l1.877332-1.877332q2.863727-2.863727 5.727453 0l12.09129 12.09129q2.863727 2.863727 0 5.727453l-1.877332 1.877332q-2.863727 2.863727-5.727453 0l-12.09129-12.09129q-2.863727-2.863727 0-5.727453Z" fill="#EF3FE7" p-id="2355"></path><path d="M1042.044648 547.639304m0-4.049921l0-2.654948q0-4.049921 4.04992-4.049921l17.099666 0q4.049921 0 4.049921 4.049921l0 2.654948q0 4.049921-4.049921 4.049921l-17.099666 0q-4.049921 0-4.04992-4.049921Z" fill="#EF3FE7" p-id="2356"></path><path d="M1056.045933 570.641049m-2.863726-2.863727l-1.877332-1.877332q-2.863727-2.863727 0-5.727453l12.09129-12.091289q2.863727-2.863727 5.727453 0l1.877332 1.877331q2.863727 2.863727 0 5.727453l-12.09129 12.09129q-2.863727 2.863727-5.727453 0Z" fill="#EF3FE7" p-id="2357"></path><path d="M1082.138864 577.02373m-4.04992 0l-2.654949 0q-4.049921 0-4.04992-4.049921l0-17.099666q0-4.049921 4.04992-4.049921l2.654949 0q4.049921 0 4.04992 4.049921l0 17.099666q0 4.049921-4.04992 4.049921Z" fill="#EF3FE7" p-id="2358"></path><path d="M1105.148291 563.089717m-2.863726 2.863726l-1.877332 1.877332q-2.863727 2.863727-5.727453 0l-12.09129-12.09129q-2.863727-2.863727 0-5.727453l1.877332-1.877331q2.863727-2.863727 5.727453 0l12.09129 12.091289q2.863727 2.863727 0 5.727453Z" fill="#EF3FE7" p-id="2359"></path><path d="M1111.523291 536.974512m0 4.049921l0 2.654948q0 4.049921-4.049921 4.049921l-17.099666 0q-4.049921 0-4.049921-4.049921l0-2.654948q0-4.049921 4.049921-4.049921l17.099666 0q4.049921 0 4.049921 4.049921Z" fill="#EF3FE7" p-id="2360"></path><path d="M1097.621097 513.977813m2.863726 2.863727l1.877332 1.877332q2.863727 2.863727 0 5.727453l-12.09129 12.091289q-2.863727 2.863727-5.727453 0l-1.877332-1.877331q-2.863727-2.863727 0-5.727453l12.09129-12.09129q2.863727-2.863727 5.727453 0Z" fill="#EF3FE7" p-id="2361"></path><path d="M180.896467 741.045526m3.014941 0l0 0q3.014941 0 3.014941 3.014942l0 8.099841q0 3.014941-3.014941 3.014941l0 0q-3.014941 0-3.014941-3.014941l0-8.099841q0-3.014941 3.014941-3.014942Z" fill="#EF3FE7" p-id="2362"></path><path d="M168.006446 748.885227m2.131886-2.131885l0 0q2.131885-2.131885 4.26377 0l5.727453 5.727453q2.131885 2.131885 0 4.26377l0 0q-2.131885 2.131885-4.26377 0l-5.727453-5.727453q-2.131885-2.131885 0-4.26377Z" fill="#EF3FE7" p-id="2363"></path><path d="M164.426789 763.500088m0-3.014941l0 0q0-3.014941 3.014941-3.014941l8.099841 0q3.014941 0 3.014942 3.014941l0 0q0 3.014941-3.014942 3.014941l-8.099841 0q-3.014941 0-3.014941-3.014941Z" fill="#EF3FE7" p-id="2364"></path><path d="M172.246399 776.431154m-2.131885-2.131886l0 0q-2.131885-2.131885 0-4.26377l5.727453-5.727453q2.131885-2.131885 4.263771 0l0 0q2.131885 2.131885 0 4.26377l-5.727453 5.727453q-2.131885 2.131885-4.263771 0Z" fill="#EF3FE7" p-id="2365"></path><path d="M186.88135 780.014765m-3.014941 0l0 0q-3.014941 0-3.014941-3.014941l0-8.099842q0-3.014941 3.014941-3.014941l0 0q3.014941 0 3.014941 3.014941l0 8.099842q0 3.014941-3.014941 3.014941Z" fill="#EF3FE7" p-id="2366"></path><path d="M199.746461 772.159927m-2.131885 2.131886l0 0q-2.131885 2.131885-4.263771 0l-5.727453-5.727453q-2.131885-2.131885 0-4.263771l0 0q2.131885-2.131885 4.263771 0l5.727453 5.727453q2.131885 2.131885 0 4.263771Z" fill="#EF3FE7" p-id="2367"></path><path d="M203.351028 757.515205m0 3.014941l0 0q0 3.014941-3.014941 3.014941l-8.099842 0q-3.014941 0-3.014941-3.014941l0 0q0-3.014941 3.014941-3.014941l8.099842 0q3.014941 0 3.014941 3.014941Z" fill="#EF3FE7" p-id="2368"></path><path d="M195.51451 744.695412m2.131885 2.131886l0 0q2.131885 2.131885 0 4.26377l-5.727453 5.727453q-2.131885 2.131885-4.263771 0l0 0q-2.131885-2.131885 0-4.26377l5.727453-5.727453q2.131885-2.131885 4.263771 0Z" fill="#EF3FE7" p-id="2369"></path><path d="M85.813324 317.108806m-7.739849 0a7.739849 7.739849 0 1 0 15.479698 0 7.739849 7.739849 0 1 0-15.479698 0Z" fill="#EF3FE7" p-id="2370"></path><path d="M623.192828 473.300756m-364.897873 0a364.897873 364.897873 0 1 0 729.795746 0 364.897873 364.897873 0 1 0-729.795746 0Z" fill="#C4EBB0" p-id="2371"></path><path d="M900.702408 482.30058a364.942872 364.942872 0 0 0-326.018632-362.827913 369.847776 369.847776 0 0 1 38.87924-2.06996 364.897873 364.897873 0 0 1 0 729.795746 369.847776 369.847776 0 0 1-38.87924-2.069959 364.897873 364.897873 0 0 0 326.018632-362.827914z" fill="#A2F4C9" p-id="2372"></path><path d="M449.451222 621.302865a17.999648 17.999648 0 0 1-12.734752-30.7344l141.072245-141.072244a17.999648 17.999648 0 1 1 25.469503 25.469502l-141.072245 141.072245a17.999648 17.999648 0 0 1-12.734751 5.264897z" fill="#050505" p-id="2373"></path><path d="M951.97093 883.939334m-30.361814 22.05915l-0.036405 0.02645q-30.361815 22.05915-52.420965-8.302666l-55.174324-75.940942q-22.05915-30.361815 8.302665-52.420964l0.036405-0.02645q30.361815-22.05915 52.420965 8.302665l55.174324 75.940942q22.05915 30.361815-8.302665 52.420965Z" fill="#C4EBB0" p-id="2374"></path><path d="M824.698893 768.089998a37.304271 37.304271 0 0 1 17.639655-6.884865 37.574266 37.574266 0 0 0-4.499912 49.13904L893.097557 886.482686a37.529267 37.529267 0 0 0 34.78432 15.209703 30.869397 30.869397 0 0 1-3.914923 3.284936 37.529267 37.529267 0 0 1-52.423976-8.279839l-55.168923-75.913517a37.574266 37.574266 0 0 1 8.324838-52.693971z" fill="#A2F4C9" p-id="2375"></path><path d="M914.607137 910.287221a53.413957 53.413957 0 0 1-8.999825-0.719986 55.033925 55.033925 0 0 1-35.999297-22.184567l-29.204429-40.229214a17.999648 17.999648 0 1 1 29.114431-21.149587l29.20443 40.229214a19.574618 19.574618 0 1 0 31.499385-22.994551l-55.168923-75.913517a19.529619 19.529619 0 0 0-31.499385 22.949552 17.999648 17.999648 0 0 1-29.114431 21.194586 55.528915 55.528915 0 1 1 89.998242-65.293725l55.168923 75.913518a55.573915 55.573915 0 0 1-44.999121 88.198277z" p-id="2376"></path><path d="M583.6836 500.975215a17.999648 17.999648 0 0 1-17.999649-17.999648V205.015996a17.999648 17.999648 0 1 1 35.999297 0v277.959571a17.999648 17.999648 0 0 1-17.999648 17.999648z" fill="#050505" p-id="2377"></path><path d="M899.622429 469.070838m-25.784496 0a25.784496 25.784496 0 1 0 51.568993 0 25.784496 25.784496 0 1 0-51.568993 0Z" fill="#FFDE11" p-id="2378"></path><path d="M583.6836 780.509756m-25.784496 0a25.784496 25.784496 0 1 0 51.568992 0 25.784496 25.784496 0 1 0-51.568992 0Z" fill="#FFDE11" p-id="2379"></path><path d="M267.744771 469.070838m-25.784497 0a25.784496 25.784496 0 1 0 51.568993 0 25.784496 25.784496 0 1 0-51.568993 0Z" fill="#FFDE11" p-id="2380"></path><path d="M583.6836 148.632097m-25.784496 0a25.784496 25.784496 0 1 0 51.568992 0 25.784496 25.784496 0 1 0-51.568992 0Z" fill="#FFDE11" p-id="2381"></path><path d="M743.880471 191.561259m-18.224644 0a18.224644 18.224644 0 1 0 36.449288 0 18.224644 18.224644 0 1 0-36.449288 0Z" fill="#F9F7AA" p-id="2382"></path><path d="M861.19318 308.873967m-18.224644 0a18.224644 18.224644 0 1 0 36.449288 0 18.224644 18.224644 0 1 0-36.449288 0Z" fill="#F9F7AA" p-id="2383"></path><path d="M861.19318 629.26771m-18.224644 0a18.224644 18.224644 0 1 0 36.449288 0 18.224644 18.224644 0 1 0-36.449288 0Z" fill="#F9F7AA" p-id="2384"></path><path d="M743.880471 746.580418m-18.224644 0a18.224644 18.224644 0 1 0 36.449288 0 18.224644 18.224644 0 1 0-36.449288 0Z" fill="#F9F7AA" p-id="2385"></path><path d="M423.44173 746.580418m-18.224644 0a18.224644 18.224644 0 1 0 36.449288 0 18.224644 18.224644 0 1 0-36.449288 0Z" fill="#F9F7AA" p-id="2386"></path><path d="M306.17402 629.26771m-18.224644 0a18.224644 18.224644 0 1 0 36.449288 0 18.224644 18.224644 0 1 0-36.449288 0Z" fill="#F9F7AA" p-id="2387"></path><path d="M306.17402 308.873967m-18.224644 0a18.224644 18.224644 0 1 0 36.449288 0 18.224644 18.224644 0 1 0-36.449288 0Z" fill="#F9F7AA" p-id="2388"></path><path d="M423.44173 191.561259m-18.224644 0a18.224644 18.224644 0 1 0 36.449288 0 18.224644 18.224644 0 1 0-36.449288 0Z" fill="#F9F7AA" p-id="2389"></path><path d="M220.495693 447.516259h-1.619968A17.999648 17.999648 0 0 1 202.496045 427.896643c0.989981-11.339779 2.519951-22.814554 4.499912-34.064335a17.999648 17.999648 0 1 1 35.459308 6.389875 360.44296 360.44296 0 0 0-4.184919 30.869397A17.999648 17.999648 0 0 1 220.495693 447.516259z" p-id="2390"></path><path d="M356.393039 490.175426a8.999824 8.999824 0 0 1-8.68483-6.704869 161.321849 161.321849 0 0 1 58.498857-170.99666 8.999824 8.999824 0 1 1 10.889788 14.35472 143.457198 143.457198 0 0 0-52.24398 152.05203 8.999824 8.999824 0 0 1-6.389875 11.024785 8.054843 8.054843 0 0 1-2.06996 0.269994z" fill="#FFFFFF" p-id="2391"></path><path d="M325.472735 736.846649m30.361815 22.059149l0.036405 0.02645q30.361815 22.05915 8.302665 52.420965l-55.174324 75.940942q-22.05915 30.361815-52.420965 8.302665l-0.036405-0.02645q-30.361815-22.05915-8.302665-52.420965l55.174324-75.940942q22.05915-30.361815 52.420965-8.302665Z" fill="#C4EBB0" p-id="2392"></path><path d="M353.423097 757.650202a37.39427 37.39427 0 0 0-17.684654-6.929865 37.529267 37.529267 0 0 1 4.499912 49.139041l-55.258921 75.913517A37.529267 37.529267 0 0 1 250.195113 890.982598a40.184215 40.184215 0 0 0 3.914924 3.329935 37.574266 37.574266 0 0 0 52.468975-8.324837L361.702935 809.98418a37.484268 37.484268 0 0 0-8.279838-52.333978z" fill="#A2F4C9" p-id="2393"></path><path d="M263.469854 899.982422a55.573915 55.573915 0 0 1-44.999121-88.198277l55.168922-75.913517a55.528915 55.528915 0 1 1 89.998243 65.293724 17.999648 17.999648 0 0 1-29.114432-21.149587 19.574618 19.574618 0 1 0-31.499384-22.994551l-55.213922 75.733521a19.529619 19.529619 0 1 0 31.499385 22.994551l29.249428-40.229214a17.999648 17.999648 0 0 1 29.114432 21.149587l-29.20443 40.229214a55.258921 55.258921 0 0 1-36.269291 22.229566 58.228863 58.228863 0 0 1-8.72983 0.854983z" p-id="2394"></path><path d="M441.711373 295.014238m-8.054843 0a8.054843 8.054843 0 1 0 16.109686 0 8.054843 8.054843 0 1 0-16.109686 0Z" fill="#FFFFFF" p-id="2395"></path><path d="M583.6836 845.218492a382.897522 382.897522 0 0 1-382.762524-371.377747 17.999648 17.999648 0 0 1 35.999297-1.079979 346.493233 346.493233 0 1 0 28.394445-148.497099 17.999648 17.999648 0 1 1-33.029355-14.35472 382.942521 382.942521 0 1 1 351.398137 535.489541z" p-id="2396"></path></svg>