<svg t="1577262062838" class="icon" viewBox="0 0 1024 1024" version="1.1" xmlns="http://www.w3.org/2000/svg" p-id="5327" width="200" height="200"><path d="M673.9 118.6H353.6c-92.9 0-168.2 75.8-168.2 168.2v452.8c0 92.9 75.8 168.2 168.2 168.2h320.9c92.9 0 168.2-75.8 168.2-168.2V286.8c-0.1-92.4-75.9-168.2-168.8-168.2z m126 621c0 69.2-56.3 125.5-125.5 125.5H353.6c-69.2 0-125.5-56.3-125.5-125.5V286.8c0-69.2 56.3-125.5 125.5-125.5H674c69.5 0 126 56.3 126 125.5v452.8z" p-id="5328" fill="#FF5918"></path><path d="M699 323.6h-98.2c-11.8 0-21.4 9.6-21.4 21.4 0 11.8 9.6 21.4 21.4 21.4H699c11.8 0 21.4-9.6 21.4-21.4 0-11.8-9.6-21.4-21.4-21.4zM330.6 366.4h194.9c11.8 0 21.4-9.6 21.4-21.4 0-11.8-9.6-21.4-21.4-21.4H330.6c-11.8 0-21.4 9.6-21.4 21.4 0 11.8 9.6 21.4 21.4 21.4zM699 503.6H330.6c-11.8 0-21.4 9.6-21.4 21.4 0 11.8 9.6 21.4 21.4 21.4H699c11.8 0 21.4-9.6 21.4-21.4 0-11.9-9.6-21.4-21.4-21.4zM699 683H330.6c-11.8 0-21.4 9.6-21.4 21.4 0 11.8 9.6 21.4 21.4 21.4H699c11.8 0 21.4-9.6 21.4-21.4 0-11.9-9.6-21.4-21.4-21.4z" p-id="5329" fill="#FF5918"></path></svg>