<svg t="1577186854449" class="icon" viewBox="0 0 1024 1024" version="1.1" xmlns="http://www.w3.org/2000/svg" p-id="2716" width="200" height="200"><path d="M753.86 860.59c-8.28 5.77-16.86 11.3-25.52 16.46-11.86 7.06-15.76 22.4-8.7 34.27 4.68 7.86 12.98 12.22 21.51 12.22 4.35 0 8.75-1.14 12.76-3.52 9.68-5.76 19.29-11.96 28.54-18.4 11.33-7.89 14.11-23.48 6.22-34.8-7.9-11.34-23.48-14.12-34.81-6.23z" fill="#FF5918" p-id="2717"></path><path d="M948.17 329.07c-23.83-56.34-57.93-106.93-101.37-150.36-43.44-43.44-94.03-77.54-150.36-101.37-58.34-24.68-120.29-37.19-184.15-37.19S386.47 52.66 328.13 77.34c-56.34 23.83-106.93 57.94-150.36 101.37-43.44 43.44-77.54 94.03-101.37 150.36-24.67 58.34-37.19 120.29-37.19 184.15S51.72 639.03 76.4 697.37c23.83 56.34 57.93 106.93 101.37 150.36 43.44 43.44 94.03 77.54 150.36 101.37 58.34 24.68 120.29 37.19 184.15 37.19 31.52 0 63.03-3.12 93.68-9.28 13.54-2.72 22.3-15.9 19.58-29.44-2.72-13.54-15.9-22.31-29.43-19.59-27.41 5.51-55.61 8.3-83.83 8.3C279 936.29 89.21 746.51 89.21 513.22S279 90.15 512.28 90.15s423.07 189.79 423.07 423.07c0 114.23-44.83 221.29-126.23 301.46-9.84 9.69-9.96 25.52-0.27 35.35 9.69 9.84 25.52 9.96 35.35 0.27 44.21-43.54 78.94-94.42 103.24-151.23 25.16-58.83 37.91-121.36 37.91-185.85 0-63.85-12.51-125.81-37.18-184.15z" fill="#FF5918" p-id="2718"></path><path d="M538.86 527.79v17.09h87.36c2.95 0 5.27 1.53 6.96 4.59 1.69 3.06 2.53 7.86 2.53 14.4 0 7.39-0.95 12.5-2.85 15.35-1.9 2.85-4.11 4.27-6.65 4.27h-87.36v50.01h87.36c2.95 0 5.27 1.53 6.96 4.59 1.69 3.06 2.53 7.86 2.53 14.4 0 7.18-0.95 12.19-2.85 15.03-1.9 2.85-4.11 4.27-6.65 4.27h-87.36v42.73c0 1.69-0.43 3.12-1.27 4.27-0.85 1.16-2.33 2.11-4.43 2.85-2.11 0.74-4.96 1.32-8.55 1.74-3.59 0.42-7.91 0.63-12.98 0.63-5.28 0-9.65-0.21-13.14-0.63-3.48-0.43-6.28-1-8.39-1.74-2.11-0.74-3.59-1.69-4.43-2.85-0.84-1.16-1.27-2.58-1.27-4.27v-42.73h-87.36c-2.53 0-4.75-1.42-6.65-4.27-1.9-2.85-2.85-7.86-2.85-15.03 0-6.54 0.95-11.34 2.85-14.4 1.9-3.06 4.11-4.59 6.65-4.59h87.36v-50h-87.36c-2.53 0-4.75-1.42-6.65-4.27-1.9-2.85-2.85-7.96-2.85-15.35 0-6.54 0.95-11.34 2.85-14.4 1.9-3.06 4.11-4.59 6.65-4.59h87.36V527.8L369.84 331.86c-2.75-4.43-4.43-8.07-5.06-10.92-0.63-2.85-0.11-5.01 1.58-6.49 1.69-1.47 4.64-2.48 8.86-3.01 4.22-0.52 9.92-0.79 17.09-0.79 5.7 0 10.39 0.16 14.09 0.48 3.69 0.32 6.7 0.85 9.02 1.58 2.32 0.74 4.11 1.74 5.38 3.01 1.27 1.27 2.42 2.85 3.48 4.75l47.48 84.83c7.38 13.29 14.51 26.8 21.36 40.51 6.85 13.72 13.77 27.43 20.73 41.15 6.96-13.71 13.82-27.43 20.57-41.15a915.045 915.045 0 0 1 21.21-40.51l47.16-84.83c0.84-1.9 1.79-3.48 2.85-4.75 1.05-1.27 2.58-2.27 4.59-3.01 2-0.74 4.85-1.27 8.55-1.58 3.69-0.32 8.6-0.48 14.72-0.48 6.54 0 11.76 0.27 15.67 0.79 3.9 0.53 6.59 1.53 8.07 3.01 1.47 1.48 1.84 3.64 1.11 6.49-0.74 2.85-2.37 6.49-4.91 10.92L538.86 527.79z" fill="#FF5918" p-id="2719"></path></svg>