<svg t="1577099407158" class="icon" viewBox="0 0 1024 1024" version="1.1" xmlns="http://www.w3.org/2000/svg" p-id="3089" width="200" height="200"><path d="M698.035898 832.831226c-11.676853 5.397458-24.764805 8.360768-37.993868 8.360768-3.52775 0-7.020223-0.211665-10.547973-0.634995-20.778448-2.469425-40.110518-12.27657-54.397905-27.587006l-38.558308-41.415785H237.840907c-9.03104 0-16.333483-7.302443-16.333483-16.333482V199.847039c0-9.03104 7.302443-16.333483 16.333483-16.333483h392.003583c9.03104 0 16.333483 7.302443 16.333482 16.333483v404.87987l20.672615 22.224826 59.901196-52.739863V167.391739c0-57.078995-46.28408-103.398353-103.398353-103.398354H244.331967c-57.114273 0-103.398353 46.319358-103.398353 103.398354v689.216522c0 57.078995 46.28408 103.398353 103.398353 103.398354h379.05674c57.114273 0 103.398353-46.319358 103.398353-103.398354v-43.567713l-6.91439 6.06773c-9.277983 8.18438-18.414855 12.206015-21.836772 13.722948zM399.411858 98.459503h68.932235c9.524925 0 17.21542 7.690495 17.215421 17.21542s-7.690495 17.21542-17.215421 17.21542h-68.932235c-9.524925 0-17.21542-7.690495-17.21542-17.21542s7.690495-17.21542 17.21542-17.21542z m34.466118 819.425776c-24.341475 0-44.061598-19.720123-44.061598-44.061598s19.720123-44.061598 44.061598-44.061597 44.061598 19.720123 44.061598 44.061597c-0.035278 24.341475-19.7554 44.061598-44.061598 44.061598z m440.827643-354.397767c-5.50329-6.244118-13.052675-10.195198-21.30761-11.182968-9.489648-1.12888-19.04985 1.83443-26.211183 8.149103l-164.181486 144.496641-66.921418-71.860268c-5.432735-5.820788-12.735178-9.524925-20.637338-10.477418-9.842423-1.164158-19.649568 2.046095-26.916732 8.819375-13.581838 12.664623-14.322665 33.972233-1.69332 47.55407l89.216798 95.813691c5.256348 5.6444 12.41768 9.242705 20.072897 10.15992 6.244118 0.740828 12.664623-0.28222 19.33207-3.351362 1.97554-0.881938 4.727185-2.11665 7.408276-4.480243l188.805181-166.121749c13.899335-12.311848 15.23988-33.619458 3.033865-47.518792z" fill="#cdcdcd" p-id="3090"></path></svg>