<svg t="1577275434213" class="icon" viewBox="0 0 1058 1024" version="1.1" xmlns="http://www.w3.org/2000/svg" p-id="3448" width="200" height="200"><path d="M1028.369362 701.013438v-504.119228C1028.369362 88.189592 940.17977 0 831.475152 0H201.263571C92.558954 0 4.369362 88.189592 4.369362 196.89421v630.21158c0 108.704618 88.189592 196.89421 196.894209 196.89421h630.211581c96.820914 0 177.379917-70.051307 193.892011-162.118739-52.163205-22.641583-278.579037-120.338138-396.415343-176.629368-89.690691 108.704618-183.634498 173.877352-325.363304 173.877352-141.603714 0-236.172978-87.188859-224.78964-193.892011 7.505497-70.051307 55.540679-184.635231 264.318592-164.995846 109.955534 10.257513 160.367457 30.89763 250.058148 60.544344 23.267041-42.531151 42.531151-89.440508 57.166871-139.226973H252.426044v-39.40386h196.89421v-70.801857h-240.17591v-43.406792h240.17591v-102.199854s2.126558-16.011727 19.889567-16.011727h98.447105v118.086489H823.719472v43.406792H567.656926v70.801857h208.903005c-19.264109 78.182262-48.285365 149.984852-84.812118 212.655754 60.544344 21.891033 336.621549 106.327877 336.621549 106.327877z m-740.417298 90.566332C138.217395 791.57977 114.575079 697.135597 122.455851 657.606645c7.880772-39.278769 51.162473-90.566333 134.3484-90.566332 95.569998 0 181.257757 24.392866 284.083068 74.554605-72.052773 93.943806-160.867823 149.984852-252.935255 149.984852z m0 0" fill="#56ABE4" p-id="3449"></path></svg>