<svg t="1577187769045" class="icon" viewBox="0 0 1024 1024" version="1.1" xmlns="http://www.w3.org/2000/svg" p-id="4868" width="200" height="200"><path d="M510.7 511.6m-448.1 0a448.1 448.1 0 1 0 896.2 0 448.1 448.1 0 1 0-896.2 0Z" fill="#AADCDA" p-id="4869"></path><path d="M770.8 772c0 32.8-116.1 59.4-259.3 59.4-143.2 0-259.3-26.6-259.3-59.4s116.1-59.4 259.3-59.4c143.2 0.1 259.3 26.7 259.3 59.4z" fill="#58595B" p-id="4870"></path><path d="M511 661.2c-27.8 0-154.7 117.2-183.4 98-28.7-19.2 42.8-179.1 36.6-204.7-6.2-25.6-161-101.2-149.9-144.1 11.1-42.9 182-16.9 206-28.5 24-11.6 53-187.1 90.7-187.1s62.2 163.5 90.7 187.1c28.6 23.6 186.8-14.9 206 28.5 19.2 43.4-141 115.7-149.9 144.1-8.9 28.5 68.5 182.5 36.6 204.7-32 22.3-155.6-98-183.4-98z" fill="#4AB4AE" p-id="4871"></path><path d="M604.4 399.8c-16.2-14.7-87.9 82-76.3 97.6 11.6 15.6 270.1-48.6 260.2-80.7-12.1-39.5-167.7-2.2-183.9-16.9zM433.5 397.5c-24.6 14.2-188-17.9-200 11.8s252.1 100.8 270.1 88.1c17.9-12.7 38.8-282.2 7.3-282.2s-52.8 168.1-77.4 182.3zM503.5 522.1c4.6 12.4-142.1 245.4-164 220.7-21.9-24.7 51.3-173.9 49-191.3-2.3-17.5 110.4-41.7 115-29.4zM633.4 551.5c6-16.5-99.7-43.1-107.6-29.3-7.9 13.8 131 234.7 156.6 220.7 25.6-14.1-55-174.9-49-191.4z" fill="#4AB4AE" p-id="4872"></path></svg>