<svg t="1577345781075" class="icon" viewBox="0 0 1024 1024" version="1.1" xmlns="http://www.w3.org/2000/svg" p-id="2620" width="200" height="200"><path d="M242 524.1a268.5 316.5 0 1 0 537 0 268.5 316.5 0 1 0-537 0Z" fill="#FFFFFF" p-id="2621"></path><path d="M512 64C264.4 64 64 264.4 64 512s200.4 448 448 448 448-200.4 448-448c-0.1-247.6-200.4-448-448-448z m184 561.2c-6.5 8.1-23.6-1.6-36.7-28.5-3.3 12.2-11.4 31.8-30.1 56.2 31 7.3 39.1 37.5 29.3 53.8-7.3 11.4-23.6 21.2-52.1 21.2-51.3 0-73.3-13.8-83.9-23.6-1.6-2.4-4.9-3.3-9-3.3s-6.5 0.8-9 3.3c-9.8 9.8-32.6 23.6-83.9 23.6-28.5 0-45.6-9.8-52.1-21.2-10.6-16.3-1.6-46.4 29.3-53.8-17.9-24.4-26.1-44-30.1-56.2-12.2 26.9-30.1 37.5-36.7 28.5-4.9-7.3-7.3-22.8-6.5-33.4 3.3-40.7 30.1-74.9 46.4-92.8-2.4-4.9-7.3-35 13-55.4V442c0-80.6 57-138.5 129.5-138.5 71.7 0 129.5 57.8 129.5 138.5v1.6c20.4 20.4 15.5 50.5 13 55.4 15.5 17.9 43.2 52.1 46.4 92.8 1.1 10.6-0.6 26-6.3 33.4z m0 0" fill="#30A5DD" p-id="2622"></path></svg>