<svg t="1577342363481" class="icon" viewBox="0 0 1024 1024" version="1.1" xmlns="http://www.w3.org/2000/svg" p-id="3342" width="200" height="200"><path d="M511.993 0C229.235 0 0.007 229.214 0.007 512c0 282.772 229.228 512 511.986 512s512-229.228 512-512c0-282.786-229.241-512-512-512z m136.96 176.088c28.39 12.234 55.566 28.483 80.613 48.693 10.254 8.233 20.184 17.126 29.656 26.746 22.15 22.46 40.542 47.333 55.498 73.62 3.746 6.602 7.33 13.325 10.617 20.09L648.953 524.3c1.738-10.778 0-348.213 0-348.213z m-176.182-25.33a333.478 333.478 0 0 1 39.586-2.372c31.326 0 61.71 4.311 90.584 12.193 7.248 2.035 14.443 4.231 21.49 6.67v253.197c-6.292-8.825-242.62-246.258-242.62-246.258 28.658-11.695 59.149-19.766 90.96-23.43zM237.103 283.768c8.138-10.348 16.829-20.453 26.355-30.086 22.137-22.461 46.592-41.19 72.555-56.347 6.468-3.8 13.11-7.37 19.82-10.78l176.37 179.052c-10.616-1.724-343.08 0.068-343.08 0.068a354.535 354.535 0 0 1 47.98-81.907z m-73.148 261.228c-1.523-13.164-2.372-26.61-2.372-40.178 0-31.825 4.244-62.6 12.019-91.931 1.98-7.37 4.15-14.714 6.534-21.828h249.466c-8.745 6.373-242.54 246.259-242.54 246.259-11.628-29.036-19.51-59.999-23.107-92.322z m129.953 238.996c-10.253-8.246-20.21-17.098-29.642-26.691-22.178-22.501-40.623-47.347-55.525-73.688-3.746-6.588-7.316-13.271-10.617-20.13l176.33-179.051c-1.711 10.82 0.108 348.268 0.108 348.268-28.47-12.248-55.552-28.47-80.654-48.708z m256.997 75.763c-12.961 1.509-26.18 2.371-39.558 2.371-31.354 0-61.67-4.311-90.57-12.234-7.236-1.967-14.417-4.204-21.505-6.629V590.04c6.293 8.879 242.608 246.231 242.58 246.231-28.644 11.75-59.149 19.793-90.947 23.485z m233.97-131.665c-8.15 10.402-16.882 20.507-26.3 30.1-22.178 22.515-46.66 41.23-72.556 56.36a344.691 344.691 0 0 1-19.833 10.766L489.802 646.292c10.644 1.725 343.054-0.04 343.054-0.04-12.06 28.847-28.093 56.387-47.98 81.839z m65.186-130.29c-1.98 7.356-4.15 14.672-6.534 21.813H594.102c8.744-6.386 242.553-246.272 242.553-246.272a356.187 356.187 0 0 1 23.094 92.322c1.523 13.177 2.371 26.597 2.371 40.192-0.013 31.825-4.27 62.572-12.059 91.944z" fill="#4CB202" p-id="3343"></path></svg>