<svg t="1577345830046" class="icon" viewBox="0 0 1024 1024" version="1.1" xmlns="http://www.w3.org/2000/svg" p-id="3391" width="200" height="200"><path d="M466.432 527.872c-55.296-14.336-117.76 13.312-141.312 61.44-24.576 49.664-1.024 104.448 54.784 122.368 57.856 18.432 125.952-9.728 149.504-63.488 23.04-52.224-6.144-105.984-62.976-120.32z" fill="#ffffff" p-id="3392"></path><path d="M688.128 501.76c-9.728-3.072-16.384-5.12-11.264-17.92 11.264-28.16 12.288-52.224 0-69.632-22.528-32.256-84.992-30.72-156.16-1.024 0 0-22.528 9.728-16.896-7.68 10.752-35.328 9.216-64.512-7.68-81.408-38.912-38.4-141.824 1.536-229.888 89.6-66.048 65.536-104.448 135.168-104.448 195.584 0 115.712 148.48 185.856 293.888 185.856 190.464 0 317.44-110.08 317.44-198.144 0-52.736-45.056-82.944-84.992-95.232z m-233.472 242.176c-116.224 11.264-216.064-40.96-223.744-116.736S311.296 480.768 427.52 468.992c116.224-11.264 216.064 40.96 223.744 116.736 7.68 76.288-80.384 146.944-196.608 158.208z" fill="#ffffff" p-id="3393"></path><path d="M411.136 607.744c-17.92-7.68-40.96 0-52.224 17.408-11.264 17.408-6.144 37.888 11.776 46.08 17.92 8.192 41.984 0.512 53.248-17.408 11.264-17.92 5.632-38.4-12.8-46.08zM455.68 589.312c-6.656-2.56-15.36 0.512-19.456 7.168-4.096 6.656-1.536 14.336 5.12 17.408 7.168 3.072 15.872-0.512 19.968-7.168 3.584-7.168 1.024-14.848-5.632-17.408z" fill="#d81e06" p-id="3394"></path><path d="M427.52 469.504c-115.712 11.264-203.776 82.432-196.608 158.208 7.68 75.776 107.52 128 223.744 116.736 116.224-11.264 203.776-82.432 196.608-158.208-7.68-76.288-107.52-128.512-223.744-116.736z m101.888 178.688c-23.552 53.248-91.648 81.92-149.504 62.976-55.808-17.92-79.36-72.704-54.784-122.368 24.064-48.64 86.528-75.776 141.312-61.44 56.832 14.848 86.016 68.608 62.976 120.832z" fill="#d81e06" p-id="3395"></path><path d="M512 0C229.376 0 0 229.376 0 512s229.376 512 512 512S1024 794.624 1024 512 794.624 0 512 0zM455.68 795.136c-145.408 0-293.888-70.144-293.888-185.856 0-60.416 38.4-130.048 104.448-196.096 88.064-88.064 190.976-128 229.888-89.6 16.896 16.896 18.944 46.592 7.68 81.408-5.632 17.92 16.896 7.68 16.896 8.192 71.168-29.696 133.632-31.744 156.16 1.024 12.288 17.408 10.752 41.472 0 69.632-5.12 12.8 1.536 14.848 11.264 17.92 39.936 12.288 84.992 42.496 84.992 95.232-0.512 87.552-126.976 198.144-317.44 198.144z m263.168-367.104c4.608-14.336 1.536-30.72-9.216-43.008-10.752-12.288-27.136-16.896-41.984-13.312-12.288 2.56-24.576-5.12-27.648-17.92-2.56-12.288 5.12-24.576 17.92-27.136 30.72-6.656 63.488 3.072 86.016 27.648 22.528 24.576 28.672 58.368 18.944 88.064-4.096 12.288-16.896 18.944-29.184 14.848-12.288-4.096-18.944-17.408-14.848-29.184zM853.504 471.04c-0.512 0-0.512 0 0 0-4.608 14.336-19.968 22.016-33.792 17.408-14.336-4.608-22.016-19.456-17.408-33.792 13.824-43.008 5.12-92.672-27.648-128.512-32.768-36.352-80.896-50.176-125.44-40.448-14.336 3.072-28.672-6.144-31.744-20.48-3.072-14.336 6.144-28.672 20.48-31.744 62.464-13.312 130.56 6.144 176.64 56.832s58.368 120.32 38.912 180.736z" fill="#d81e06" p-id="3396"></path><path d="M733.696 456.704c12.288 4.096 25.088-2.56 29.184-14.848 9.728-29.696 3.584-63.488-18.944-88.064-22.528-24.576-55.296-34.304-86.016-27.648-12.288 2.56-20.48 14.848-17.92 27.136s14.848 20.48 27.648 17.92c14.848-3.072 31.232 1.536 41.984 13.312 10.752 12.288 13.824 28.672 9.216 43.008-4.096 12.288 2.56 25.6 14.848 29.184z" fill="#ffffff" p-id="3397"></path><path d="M637.952 233.472c-14.336 3.072-23.552 17.408-20.48 31.744 3.072 14.336 17.408 23.552 31.744 20.48 44.544-9.216 92.672 4.608 125.44 40.448 32.768 36.352 41.472 85.504 27.648 128.512-4.608 14.336 3.072 29.184 17.408 33.792 13.824 4.608 29.184-3.072 33.792-17.408 19.456-60.928 7.168-130.048-38.912-180.736-46.08-50.688-114.176-70.144-176.64-56.832z" fill="#ffffff" p-id="3398"></path></svg>