<svg t="1577240210965" class="icon" viewBox="0 0 1024 1024" version="1.1" xmlns="http://www.w3.org/2000/svg" p-id="4887" width="200" height="200"><path d="M979.492263 978.989154c0-0.731426 0-1.462852-0.337581-2.194278s-0.281318-1.237798-0.450109-1.856698-0.281318-1.237798-0.450108-1.856697-0.393845-1.181535-0.618899-1.800434-0.393845-1.237798-0.675163-1.856697-0.506372-1.069008-0.78769-1.631643-0.562636-1.237798-0.900217-1.856698l-0.900217-1.519116a30.21353 30.21353 0 0 0-1.069007-1.800434l-1.181535-1.631643-1.125271-1.462852c-0.731426-0.900217-1.519116-1.74417-2.363069-2.588124l-154.724782-154.724782a39.38449 39.38449 0 0 0-55.700921 55.700922L845.47247 945.23102H511.998368a432.891807 432.891807 0 1 1 394.913907-254.817649 39.38449 39.38449 0 1 0 71.736035 32.464072A511.998368 511.998368 0 1 0 511.998368 1024H946.240501l2.025488-0.337581 2.025488-0.506372 1.74417-0.450109 1.969225-0.675162 1.687907-0.6189 1.800433-0.843953 1.687907-0.843953 1.74417-1.012744 1.57538-0.956481 1.912961-1.406589 1.181535-0.900217c1.012744-0.843953 1.969224-1.687907 2.925705-2.644387s1.800434-1.912961 2.644387-2.925705l0.843953-1.125271c0.506372-0.618899 0.95648-1.294062 1.406589-1.912961l0.95648-1.575379 1.012744-1.687907 0.843954-1.687907c0.281318-0.562636 0.562636-1.181535 0.843953-1.800434s0.393845-1.125271 0.618899-1.687906 0.450108-1.294062 0.675163-1.912961 0.281318-1.181535 0.450108-1.800434 0.337581-1.294062 0.450109-1.969225 0-1.406589 0.337581-2.138015 0-1.125271 0-1.687907v-3.882185-3.882185c0-1.294062 0-1.462852-0.112527-2.138016z" fill="#467CFD" p-id="4888"></path><path d="M241.933295 512.001632a270.065073 270.065073 0 1 0 270.065073-270.065074 270.065073 270.065073 0 0 0-270.065073 270.065074z m355.304362-169.297043a25.881236 25.881236 0 0 1 36.627576 36.627575L548.56968 464.571453h66.953633a25.881236 25.881236 0 1 1 0 51.762473H537.879605V568.265189h77.643708a25.881236 25.881236 0 1 1 0 51.762472H537.879605v43.154148a25.881236 25.881236 0 0 1-51.762473 0v-43.154148H408.473424a25.881236 25.881236 0 1 1 0-51.762472h77.643708v-51.762473H408.473424a25.881236 25.881236 0 1 1 0-51.762472h66.953632L390.131504 379.332164a25.9375 25.9375 0 0 1 36.627576-36.627575L511.998368 427.887614z" fill="#8BAEF7" p-id="4889"></path><path d="M390.131504 342.704589a25.9375 25.9375 0 0 0 0 36.627575L475.427056 464.571453H408.473424a25.881236 25.881236 0 1 0 0 51.762473h77.643708V568.265189H408.473424a25.881236 25.881236 0 1 0 0 51.762472h77.643708v43.154148a25.881236 25.881236 0 0 0 51.762473 0v-43.154148h77.643708a25.881236 25.881236 0 1 0 0-51.762472H537.879605v-51.762473h77.643708a25.881236 25.881236 0 1 0 0-51.762472H548.56968l85.239289-85.239289a25.881236 25.881236 0 0 0-36.627575-36.627576L511.998368 427.887614 426.815343 342.704589a25.9375 25.9375 0 0 0-36.683839 0z" fill="#467CFD" p-id="4890"></path></svg>