<svg t="1577158428589" class="icon" viewBox="0 0 1129 1024" version="1.1" xmlns="http://www.w3.org/2000/svg" p-id="6256" width="200" height="200"><path d="M425.10344785 921.65517266c-6.20689658 3.10344786-12.41379317 6.20689658-21.72413759 6.20689658 15.51724102 24.82758633 46.55172393 40.34482734 74.48275898 31.0344829l496.55172392-148.96551796c34.13793076-9.31034443 55.86206924-46.55172393 43.44827608-83.79310342l-12.41379317-52.7586205c-3.10344786 3.10344786-6.20689658 3.10344786-9.31034531 6.20689658l-571.03448291 242.06896582zM940.2758624 437.51724102l-3.10344873-15.51724102c-9.31034443-31.03448291-40.34482734-52.7586205-71.37931025-49.65517266 0 3.10344786 3.10344786 6.20689658 3.10344873 9.31034532 12.41379317 31.03448291 40.34482734 49.65517266 71.37931025 55.86206836z" fill="#FF5918" p-id="6257"></path><path d="M1045.79310342 493.37931026l-46.55172393-99.31034444c-43.44827607 15.51724102-90-3.10344786-108.62068975-43.44827608-18.62068974-43.44827607-6.20689658-93.10344785 31.03448292-114.82758632l-58.96551709-117.93103418c-21.7241376-46.55172393-77.58620684-65.17241367-121.03448291-43.44827608l-626.89655216 307.2413795c-46.55172393 21.7241376-65.17241367 77.58620684-43.44827607 121.03448291l55.86206924 114.82758545c43.44827607-15.51724102 93.10344785 3.10344786 111.72413847 46.5517248s6.20689658 93.10344785-31.0344829 114.82758633l46.55172392 99.31034443c21.7241376 46.55172393 77.58620684 65.17241367 121.03448291 43.44827608l626.89655127-307.24137949c46.55172393-24.82758633 65.17241367-77.58620684 43.44827608-121.03448291z m-682.75862051-121.03448292l176.89655127-86.89655127c18.62068974-9.31034443 43.44827607-3.10344786 52.75862139 18.62068976 9.31034443 18.62068974 3.10344786 43.44827607-18.62068975 52.7586205l-176.89655215 86.89655127c-9.31034443 6.20689658-21.7241376 6.20689658-31.03448291 3.10344873-9.31034443-3.10344786-18.62068974-9.31034443-21.7241376-18.62068975-9.31034443-24.82758633 0-46.55172393 18.62068975-55.86206924z m-111.72413848 52.75862051c-3.10344786 0-6.20689658 3.10344786-9.31034443 3.10344873-9.31034443 0-12.41379317-3.10344786-18.62068974-12.41379316l-9.31034444-18.62068975c-3.10344786-9.31034443 0-21.7241376 9.31034444-24.82758633s21.7241376 0 24.82758632 9.31034532l9.31034444 18.62068974c9.31034443 9.31034443 3.10344786 21.7241376-6.20689659 24.82758545z m43.44827607 90.00000001c-3.10344786 0-6.20689658 3.10344786-9.31034443 3.10344872-9.31034443 0-12.41379317-3.10344786-18.62068974-12.41379316l-9.31034531-18.62068975c-3.10344786-9.31034443 0-21.7241376 9.31034531-24.82758633s21.7241376 0 24.82758633 9.31034532l9.31034443 18.62068974c9.31034443 9.31034443 3.10344786 18.62068974-6.20689659 24.82758546z m40.34482735 86.89655214c-3.10344786 0-3.10344786 3.10344786-9.31034443 3.10344786-9.31034443 0-12.41379317-3.10344786-18.62068975-12.41379229l-9.31034443-18.62068974c-3.10344786-9.31034443 0-21.7241376 9.31034443-24.82758633 9.31034443-3.10344786 21.7241376 0 24.82758633 9.31034443l9.31034443 18.62068974c9.31034443 9.31034443 6.20689658 18.62068974-6.20689658 24.82758633z m43.44827608 83.79310342c-3.10344786 3.10344786-3.10344786 3.10344786-9.31034444 3.10344873-9.31034443 0-12.41379317-3.10344786-18.62068975-12.41379317l-9.31034531-18.62068974c-3.10344786-9.31034443 0-21.7241376 9.31034531-24.82758633s21.7241376 0 24.82758633 9.31034443l9.31034443 18.62068975c9.31034443 9.31034443 6.20689658 21.7241376-6.20689657 24.82758633z m43.44827607 86.89655215c-3.10344786 3.10344786-3.10344786 3.10344786-9.31034443 3.10344785-9.31034443 0-12.41379317-3.10344786-18.62068975-12.41379316l-9.31034532-18.62068975c-3.10344786-9.31034443 0-21.7241376 9.31034532-24.82758633 9.31034443-3.10344786 21.7241376 0 24.82758632 9.31034532l9.31034444 18.62068974c9.31034443 9.31034443 6.20689658 21.7241376-6.20689658 24.82758633z m363.10344785-344.48275899l-316.55172392 158.2758624c-18.62068974 9.31034443-43.44827607 3.10344786-52.75862051-18.62068974-9.31034443-18.62068974-3.10344786-43.44827607 18.62068974-52.75862138l316.55172393-158.27586153c18.62068974-9.31034443 43.44827607-3.10344786 52.75862051 18.62068974 9.31034443 18.62068974 0 43.44827607-18.62068975 52.75862051z" fill="#FF5918" p-id="6258"></path></svg>