<svg xmlns="http://www.w3.org/2000/svg" class="icon" viewBox="0 0 1024 1024" width="200" height="200" t="1577274007298" p-id="4500" version="1.1"><path fill="#d81e06" d="M 563.471 589.235 L 481.638 693.55 l -81.8381 -104.315 c -4.1984 -5.39648 -9.1392 -8.2432 -14.8326 -8.54528 c -5.69856 -0.30208 -11.2435 1.0496 -16.64 4.04992 c -4.79744 4.1984 -7.49568 9.14432 -8.09472 14.8378 c -0.60416 5.69344 0.896 11.2333 4.49536 16.6298 l 79.1347 100.721 h -41.3645 c -6.59456 0 -11.8426 1.79712 -15.744 5.39136 c -3.89632 3.59936 -5.84192 8.69376 -5.84192 15.2934 v 1.79712 c 0 6.59456 1.9456 11.8426 5.84192 15.7338 c 3.90144 3.89632 9.14944 5.84192 15.744 5.84192 h 55.7517 v 17.9866 H 402.504 c -6.59456 0 -11.8426 1.9456 -15.744 5.84192 c -3.89632 3.89632 -5.84192 9.1392 -5.84192 15.7338 v 1.79712 c 0 6.59456 1.9456 11.6941 5.84192 15.2934 c 3.90144 3.59936 9.14944 5.39648 15.744 5.39648 h 55.7517 v 56.6579 c 0 6.59456 1.9456 11.6941 5.84192 15.2934 c 3.89632 3.59424 9.1392 5.39136 15.7338 5.39136 h 1.79712 c 5.99552 0 10.9414 -1.79712 14.8378 -5.39136 c 3.89632 -3.59936 5.84192 -8.69376 5.84192 -15.2934 v -56.6579 h 56.6579 c 6.59456 0 11.6941 -1.79712 15.2934 -5.39648 s 5.39648 -8.69376 5.39648 -15.2934 v -1.79712 c 0 -6.58944 -1.79712 -11.8374 -5.39648 -15.7338 c -3.59424 -3.89632 -8.68864 -5.84192 -15.2934 -5.84192 H 502.313 v -17.9866 h 56.6579 c 6.59456 0 11.6941 -1.9456 15.2934 -5.84192 s 5.39648 -9.1392 5.39648 -15.7338 v -1.79712 c 0 -6.59456 -1.79712 -11.6941 -5.39648 -15.2934 c -3.59424 -3.59424 -8.68864 -5.39136 -15.2934 -5.39136 h -39.5622 l 79.1347 -100.721 c 4.1984 -5.39648 5.84704 -10.9414 4.94592 -16.6298 c -0.896 -5.69856 -3.74784 -10.6445 -8.54528 -14.8378 a 32.2048 32.2048 0 0 0 -17.536 -4.04992 c -6.29248 0.30208 -10.9414 3.1488 -13.9366 8.54528 c -0.00512 0 0 0 0 0 Z" p-id="4501" /><path fill="#d81e06" d="M 962.227 1020.02 H 65.5258 v -180.864 h 29.3018 c 63.7747 0 115.651 -51.0874 115.651 -113.879 s -51.881 -113.884 -115.651 -113.884 h -29.3018 V 430.525 h 896.701 v 589.496 Z M 124.129 961.418 h 779.494 V 489.129 H 124.129 v 66.0941 c 82.1862 13.8291 144.957 84.8179 144.957 170.051 c 0 85.2275 -62.7712 156.216 -144.957 170.045 v 66.0992 Z" p-id="4502" /><path fill="#d81e06" d="M 776.571 892.114 a 4.352 4.352 0 0 0 -4.352 -4.352 h -36.311 a 4.352 4.352 0 0 0 -4.352 4.352 V 959.488 c 0 2.4064 1.95072 4.352 4.352 4.352 h 36.311 a 4.352 4.352 0 0 0 4.352 -4.352 v -67.3741 Z M 776.571 754.591 a 4.352 4.352 0 0 0 -4.352 -4.352 h -36.311 a 4.352 4.352 0 0 0 -4.352 4.352 v 67.3741 c 0 2.4064 1.95072 4.352 4.352 4.352 h 36.311 a 4.352 4.352 0 0 0 4.352 -4.352 v -67.3741 Z M 776.571 617.631 a 4.352 4.352 0 0 0 -4.352 -4.352 h -36.311 a 4.352 4.352 0 0 0 -4.352 4.352 v 67.3741 c 0 2.4064 1.95072 4.352 4.352 4.352 h 36.311 a 4.352 4.352 0 0 0 4.352 -4.352 v -67.3741 Z M 776.571 478.316 a 4.352 4.352 0 0 0 -4.352 -4.352 h -36.311 a 4.352 4.352 0 0 0 -4.352 4.352 v 67.3741 c 0 2.4064 1.95072 4.352 4.352 4.352 h 36.311 a 4.352 4.352 0 0 0 4.352 -4.352 V 478.316 Z M 886.932 317.563 c 6.08256 0 7.18336 -4.79232 8.11008 -31.3344 c 4.79232 3.87072 14.1875 7.74144 20.2701 9.216 c -2.21184 32.9882 -7.74144 42.5728 -26.5421 42.5728 h -22.1133 c -20.823 0 -26.1683 -7.00416 -26.1683 -28.5645 V 253.061 h -27.6429 c -3.31264 38.3334 -11.7965 69.847 -55.8387 87.7261 c -2.58048 -5.5296 -8.65792 -13.6397 -13.6397 -17.879 c 38.3334 -14.377 43.4944 -39.255 45.7062 -69.847 h -41.6512 V 231.68 h 164.393 v 21.376 h -48.6554 V 309.453 c 0 7.00416 1.10592 8.11008 7.18336 8.11008 h 16.5888 Z m 7.92064 -114.447 H 764.006 v -21.1917 h 130.852 v 21.1917 h -0.00512 Z" p-id="4503" /></svg>