<svg t="1577276314207" class="icon" viewBox="0 0 1024 1024" version="1.1" xmlns="http://www.w3.org/2000/svg" p-id="7114" width="200" height="200"><path d="M698.8 446.5c93.3 0 168.9 75.6 168.9 168.9 0 93.3-75.6 168.9-168.9 168.9-93.3 0-168.9-75.6-168.9-168.9-0.1-93.2 75.6-168.9 168.9-168.9z m164.7 164.1c0-89.5-72.5-162-162-162s-162 72.5-162 162 72.5 162 162 162 162-72.5 162-162z" fill="#FFC603" p-id="7115"></path><path d="M701.5 448.6c89.5 0 162 72.5 162 162s-72.5 162-162 162-162-72.5-162-162 72.6-162 162-162z m33.9 195.3v-56.8c0-4.5-3.7-8.2-8.2-8.2h-56.8c-4.5 0-8.2 3.7-8.2 8.2v56.8c0 4.5 3.7 8.2 8.2 8.2h56.8c4.5 0 8.2-3.7 8.2-8.2z" fill="#FFEB00" p-id="7116"></path><path d="M698.8 790.4c-96.5 0-174.9-78.5-174.9-174.9s78.5-174.9 174.9-174.9S873.7 519 873.7 615.5s-78.5 174.9-174.9 174.9z m0-337.9c-89.8 0-162.9 73.1-162.9 162.9S609 778.3 698.8 778.3s162.9-73.1 162.9-162.9-73.1-162.9-162.9-162.9z" fill="#91000A" p-id="7117"></path><path d="M727.2 658.1h-56.8c-7.8 0-14.2-6.4-14.2-14.2v-56.8c0-7.8 6.4-14.2 14.2-14.2h56.8c7.8 0 14.2 6.4 14.2 14.2v56.8c0 7.8-6.4 14.2-14.2 14.2z m-56.9-73.2c-1.2 0-2.2 1-2.2 2.2v56.8c0 1.2 1 2.2 2.2 2.2h56.8c1.2 0 2.2-1 2.2-2.2v-56.8c0-1.2-1-2.2-2.2-2.2h-56.8z" fill="#91000A" p-id="7118"></path><path d="M698.8 479.9c74.9 0 135.6 60.7 135.6 135.6s-60.7 135.6-135.6 135.6h-2.3c70.2-1.2 126.8-58.5 126.8-128.9 0-71.2-57.7-129-129-129-71.2 0-129 57.7-129 129 0 15.7 2.8 30.8 8 44.8-6.5-15.9-10.1-33.2-10.1-51.4 0-75 60.7-135.7 135.6-135.7z" fill="#E8AB00" p-id="7119"></path><path d="M694.2 493.1c71.2 0 129 57.7 129 129 0 70.5-56.5 127.8-126.8 128.9-55.7-0.9-103.2-35.4-123.2-84.1-5.2-14-8-29-8-44.8 0.1-71.2 57.8-129 129-129z m40.5 150.2v-55.7c0-4.4-3.6-8-8-8H671c-4.4 0-8 3.6-8 8v55.7c0 4.4 3.6 8 8 8h55.7c4.3 0.1 8-3.5 8-8z" fill="#FFC500" p-id="7120"></path><path d="M698.8 757.1h-2.4c-56.6-1-107.1-35.4-128.6-87.9-7-17-10.5-35.1-10.5-53.7 0-78.1 63.5-141.6 141.6-141.6s141.6 63.5 141.6 141.6c-0.2 78-63.7 141.6-141.7 141.6z m0-271.2c-71.4 0-129.6 58.1-129.6 129.6 0 17 3.2 33.5 9.6 49.1 19.7 48 65.9 79.6 117.7 80.4h2.2c71.4 0 129.6-58.1 129.6-129.6 0-71.4-58.1-129.5-129.5-129.5z" fill="#91000A" p-id="7121"></path><path d="M726.6 657.4h-55.7c-7.7 0-14-6.3-14-14v-55.7c0-7.7 6.3-14 14-14h55.7c7.7 0 14 6.3 14 14v55.7c0.1 7.7-6.2 14-14 14z m-55.7-71.8c-1.1 0-2 0.9-2 2v55.7c0 1.1 0.9 2 2 2h55.7c1.1 0 2-0.9 2-2v-55.7c0-1.1-0.9-2-2-2h-55.7z" fill="#840615" p-id="7122"></path><path d="M739.1 552.2h-91.8c-12.7 0-22.9 10.3-22.9 22.9v91.8c0 12.7 10.3 22.9 22.9 22.9h91.8c12.7 0 22.9-10.3 22.9-22.9v-91.8c0-12.6-10.2-22.9-22.9-22.9zM733 652c0 4.9-4 8.9-8.9 8.9h-61.8c-4.9 0-8.9-4-8.9-8.9v-61.8c0-4.9 4-8.9 8.9-8.9h61.8c4.9 0 8.9 4 8.9 8.9V652z" fill="#E8AB00" p-id="7123"></path><path d="M740.9 552.2h-84.4c-11.6 0-21.1 9.4-21.1 21.1v84.4c0 11.6 9.4 21.1 21.1 21.1h84.4c11.6 0 21.1-9.4 21.1-21.1v-84.4c0-11.6-9.4-21.1-21.1-21.1z m-5.5 91.7c0 4.5-3.7 8.2-8.2 8.2h-56.8c-4.5 0-8.2-3.7-8.2-8.2v-56.8c0-4.5 3.7-8.2 8.2-8.2h56.8c4.5 0 8.2 3.7 8.2 8.2v56.8z" fill="#FFEB00" p-id="7124"></path><path d="M740.9 684.7h-84.4c-14.9 0-27.1-12.2-27.1-27.1v-84.4c0-14.9 12.2-27.1 27.1-27.1h84.4c14.9 0 27.1 12.2 27.1 27.1v84.4c0 15-12.1 27.1-27.1 27.1z m-84.3-126.5c-8.3 0-15.1 6.8-15.1 15.1v84.4c0 8.3 6.8 15.1 15.1 15.1H741c8.3 0 15.1-6.8 15.1-15.1v-84.4c0-8.3-6.8-15.1-15.1-15.1h-84.4z m70.6 99.9h-56.8c-7.8 0-14.2-6.4-14.2-14.2v-56.8c0-7.8 6.4-14.2 14.2-14.2h56.8c7.8 0 14.2 6.4 14.2 14.2v56.8c0 7.8-6.4 14.2-14.2 14.2z m-56.9-73.2c-1.2 0-2.2 1-2.2 2.2v56.8c0 1.2 1 2.2 2.2 2.2h56.8c1.2 0 2.2-1 2.2-2.2v-56.8c0-1.2-1-2.2-2.2-2.2h-56.8z" fill="#91000A" p-id="7125"></path><path d="M689.2 712.9c1.9 0.2 4.3 2.8 2.6 3.4-1.7 0.6-11.6 4-13.2 4.4-1.6 0.3-3.1 0.1-4.1-0.8-1-1-1.5-2.1-0.7-2s3.3-0.6 4.7-1.7c1.5-1.3 4.7-3.7 4.7-6.5-0.1-2.8-2.1-3.8-3.6-3.9-1.5-0.1-5.7 0.8-6.3 1-2 0.5-2.9-1.1-2.7-2.6 0.2-1.5 1.1-1.8 2.7-2.4 2.3-0.9 6.3-2 9.5-0.5 3.2 1.6 5.1 4.4 4.6 8.3-0.3 2.5-1.6 3.8-2 4.2-0.1 0.1 0 0.2 0.1 0.2-0.1 0 2.5-1.2 3.7-1.1z" fill="#FFEB00" p-id="7126"></path><path d="M694.9 700.4c3.3 0 6 2.8 6 6.3s-2.7 6.3-6 6.3-6-2.8-6-6.3 2.7-6.3 6-6.3z m2.3 7c0-1.8-1.4-3.3-3.1-3.3-1.7 0-3.1 1.5-3.1 3.3 0 1.8 1.4 3.3 3.1 3.3 1.7-0.1 3.1-1.5 3.1-3.3zM707.1 702.6c1.2 2.5 0.3 2-0.3 2.1-0.5 0.1-0.7 0.1-0.9 2.2-0.1 2-1.2 7.6-2.6 9-1.4 1.5-5.2 1.4-4.7-0.8s2.5-0.6 3.3-5.1c0.8-4.5 0.7-7 0.8-7.6 0.3-1.3 3.2-2.3 4.4 0.2zM720 710.2c1.4 1.4 2.3 3.3 2.2 5.2-0.1 4.1-3.8 7.2-8.6 6.2-4.4-0.9-7.8-3.8-7.4-7.7 0.2-2.2 1.5-4 3.5-5.1 1-0.6 1.2-1.2 0.7-2.2-0.2-0.5-0.4-1-0.6-1.6-0.1-0.5-0.6-2.7 1.2-2.2 1.1 0.3 0.9 1.4 1.1 2.3 0.4 1.3 1.2 2.3 2.6 2.4 1.6 0.2 3.4-1.1 3.7-2.9 0.4-2.3-1.9-4.3-4.1-3.4-0.7 0.3-2.3 1.1-3 0.1-1.8-2.4-2.3-3-1-2.7 1 0.2 2.1-0.2 3.6-0.9 4.6-2.1 8.9 2.5 8.2 6.7-0.3 1.4-1.2 2.7-2.1 3.6-0.6 0.5-0.6 1.5 0 2.2z m-7 7c2.4 0.7 4.2-0.8 4.2-3 0-1.9-1.5-3.5-3.6-3.7-2.2-0.2-3.9 1.1-4 3-0.3 1.8 1.3 3.1 3.4 3.7z" fill="#FFEB00" p-id="7127"></path><path d="M436.3 241.8c147.7 0 267.4 119.7 267.4 267.4S584 776.6 436.3 776.6 168.9 656.9 168.9 509.2c-0.1-147.6 119.7-267.4 267.4-267.4z m260.8 259.8c0-141.6-114.8-256.4-256.4-256.4-141.6 0-256.4 114.8-256.4 256.4C184.2 643.2 299 758 440.7 758c141.6 0 256.4-114.8 256.4-256.4z" fill="#FFC603" p-id="7128"></path><path d="M440.7 245.1c141.6 0 256.4 114.8 256.4 256.4 0 141.6-114.8 256.4-256.4 256.4-141.7 0.1-256.5-114.7-256.5-256.3 0-141.7 114.8-256.5 256.5-256.5z m53.6 309.2v-90c0-7.2-5.8-13-13-13h-90c-7.2 0-13 5.8-13 13v90c0 7.2 5.8 13 13 13h90c7.1 0 13-5.9 13-13z" fill="#FFEB00" p-id="7129"></path><path d="M436.3 782.7c-73 0-141.7-28.4-193.4-80.1-51.6-51.6-80.1-120.3-80.1-193.4 0-73 28.4-141.7 80.1-193.4 51.6-51.6 120.3-80.1 193.4-80.1 73 0 141.7 28.4 193.4 80.1 51.6 51.6 80.1 120.3 80.1 193.4 0 73-28.4 141.7-80.1 193.4-51.7 51.7-120.4 80.1-193.4 80.1z m0-534.9c-69.8 0-135.5 27.2-184.9 76.6-49.4 49.4-76.6 115-76.6 184.9 0 69.8 27.2 135.5 76.6 184.9 49.4 49.4 115 76.6 184.9 76.6 69.8 0 135.5-27.2 184.9-76.6 49.4-49.4 76.6-115 76.6-184.9 0-69.8-27.2-135.5-76.6-184.9-49.4-49.4-115.1-76.6-184.9-76.6z" fill="#91000A" p-id="7130"></path><path d="M481.3 573.3h-90c-10.5 0-19-8.5-19-19v-90c0-10.5 8.5-19 19-19h90c10.5 0 19 8.5 19 19v90c0 10.4-8.6 19-19 19z m-90-116c-3.9 0-7 3.1-7 7v90c0 3.9 3.1 7 7 7h90c3.9 0 7-3.1 7-7v-90c0-3.9-3.1-7-7-7h-90z" fill="#91000A" p-id="7131"></path><path d="M436.3 294.7c118.5 0 214.6 96.1 214.6 214.6s-96.1 214.6-214.6 214.6h-3.7c111.1-1.9 200.7-92.5 200.7-204.1 0-112.7-91.4-204.2-204.2-204.2S225 407 225 519.7c0 24.9 4.5 48.8 12.7 70.9-10.3-25.1-16-52.6-16-81.4 0-118.4 96-214.5 214.6-214.5z" fill="#E8AB00" p-id="7132"></path><path d="M429.1 315.6c112.8 0 204.2 91.4 204.2 204.2 0 111.6-89.5 202.3-200.7 204.1-88.2-1.5-163.4-56.1-195-133.2-8.2-22.1-12.7-46-12.7-70.9 0.1-112.8 91.5-204.2 204.2-204.2z m64 237.8v-88.2c0-7-5.7-12.7-12.7-12.7h-88.2c-7 0-12.7 5.7-12.7 12.7v88.2c0 7 5.7 12.7 12.7 12.7h88.2c7 0 12.7-5.7 12.7-12.7z" fill="#FFC500" p-id="7133"></path><path d="M436.3 729.9h-3.8c-88.3-1.5-166.9-55.2-200.4-136.9-10.9-26.5-16.4-54.7-16.4-83.6 0-58.9 22.9-114.3 64.6-156 41.7-41.7 97.1-64.6 156-64.6 58.9 0 114.3 22.9 156 64.6s64.6 97.1 64.6 156c0 58.9-22.9 114.3-64.6 156-41.7 41.5-97.1 64.5-156 64.5z m0-429.2c-115 0-208.6 93.6-208.6 208.6 0 27.4 5.2 54 15.5 79.1 31.7 77.3 106.1 128.1 189.5 129.5h3.6c115 0 208.6-93.6 208.6-208.6s-93.6-208.6-208.6-208.6z" fill="#91000A" p-id="7134"></path><path d="M480.4 572.1h-88.2c-10.3 0-18.7-8.4-18.7-18.7v-88.2c0-10.3 8.4-18.7 18.7-18.7h88.2c10.3 0 18.7 8.4 18.7 18.7v88.2c0 10.3-8.4 18.7-18.7 18.7z m-88.2-113.6c-3.7 0-6.7 3-6.7 6.7v88.2c0 3.7 3 6.7 6.7 6.7h88.2c3.7 0 6.7-3 6.7-6.7v-88.2c0-3.7-3-6.7-6.7-6.7h-88.2z" fill="#91000A" p-id="7135"></path><path d="M500.1 409.1H354.8c-20.1 0-36.3 16.3-36.3 36.3v145.3c0 20.1 16.3 36.3 36.3 36.3h145.3c20.1 0 36.3-16.3 36.3-36.3V445.4c0-20-16.2-36.3-36.3-36.3zM490.5 567c0 7.8-6.3 14.1-14.1 14.1h-97.9c-7.8 0-14.1-6.3-14.1-14.1v-97.9c0-7.8 6.3-14.1 14.1-14.1h97.9c7.8 0 14.1 6.3 14.1 14.1V567z" fill="#E8AB00" p-id="7136"></path><path d="M503 409.1H369.5c-18.4 0-33.4 14.9-33.4 33.4V576c0 18.4 14.9 33.4 33.4 33.4H503c18.4 0 33.4-14.9 33.4-33.4V442.5c0-18.4-14.9-33.4-33.4-33.4z m-8.7 145.2c0 7.2-5.8 13-13 13h-90c-7.2 0-13-5.8-13-13v-90c0-7.2 5.8-13 13-13h90c7.2 0 13 5.8 13 13v90z" fill="#FFEB00" p-id="7137"></path><path d="M503 615.4H369.5c-21.7 0-39.4-17.7-39.4-39.4V442.5c0-21.7 17.7-39.4 39.4-39.4H503c21.7 0 39.4 17.7 39.4 39.4V576c0 21.8-17.6 39.4-39.4 39.4zM369.5 415.1c-15.1 0-27.4 12.3-27.4 27.4V576c0 15.1 12.3 27.4 27.4 27.4H503c15.1 0 27.4-12.3 27.4-27.4V442.5c0-15.1-12.3-27.4-27.4-27.4H369.5z m111.8 158.2h-90c-10.5 0-19-8.5-19-19v-90c0-10.5 8.5-19 19-19h90c10.5 0 19 8.5 19 19v90c0 10.4-8.6 19-19 19z m-90-116c-3.9 0-7 3.1-7 7v90c0 3.9 3.1 7 7 7h90c3.9 0 7-3.1 7-7v-90c0-3.9-3.1-7-7-7h-90z" fill="#91000A" p-id="7138"></path><path d="M575 312.6c-0.7 0-1.5-0.2-2.1-0.6l-1-0.6c-1.9-1.2-2.4-3.6-1.3-5.5 1.2-1.9 3.6-2.4 5.5-1.3l1.1 0.7c1.9 1.2 2.4 3.7 1.2 5.5-0.7 1.1-2 1.8-3.4 1.8zM648.2 391.1c-1.4 0-2.7-0.7-3.5-2-14.7-25.5-33.8-47.9-56.8-66.5-1.7-1.4-2-3.9-0.6-5.6 1.4-1.7 3.9-2 5.6-0.6 23.7 19.3 43.4 42.4 58.6 68.7 1.1 1.9 0.5 4.4-1.5 5.5-0.5 0.3-1.1 0.5-1.8 0.5z" fill="#FFFFFF" p-id="7139"></path><path d="M418.3 667.3c3.7 0.4 8.1 5 4.9 6.1-3.2 1.1-22.1 7.3-25.1 7.9-3 0.6-6 0.3-7.9-1.5-1.9-1.8-2.8-3.8-1.3-3.6 1.5 0.1 6.2-1 8.9-3.1 2.9-2.3 9-6.6 8.9-11.8-0.1-5.1-3.9-6.8-6.8-7-2.9-0.3-10.8 1.5-11.9 1.8-3.9 0.8-5.5-2-5.1-4.8s2.2-3.2 5.1-4.3c4.3-1.6 12-3.7 18.1-0.8 6.1 2.9 9.7 7.9 8.7 15-0.6 4.5-3.1 6.9-3.8 7.7-0.2 0.2 0 0.4 0.2 0.4-0.1-0.1 5-2.3 7.1-2z" fill="#FFEB00" p-id="7140"></path><path d="M429.2 644.6c6.3 0 11.4 5.1 11.4 11.4 0 6.3-5.1 11.4-11.4 11.4-6.3 0-11.4-5.1-11.4-11.4 0-6.3 5.1-11.4 11.4-11.4z m4.3 12.6c0-3.3-2.6-5.9-5.9-5.9-3.3 0-5.9 2.6-5.9 5.9 0 3.3 2.6 5.9 5.9 5.9 3.3 0 5.9-2.6 5.9-5.9z" fill="#FFEB00" p-id="7141"></path><path d="M452.5 648.6c2.3 4.5 0.5 3.6-0.5 3.8-1 0.1-1.4 0.3-1.6 3.9-0.3 3.6-2.3 13.7-4.9 16.3-2.7 2.6-9.9 2.5-8.9-1.5s4.8-1 6.3-9.2c1.5-8.1 1.4-12.7 1.5-13.7 0.2-2.3 5.8-4.1 8.1 0.4zM477 662.3c2.6 2.5 4.3 5.9 4.2 9.5-0.2 7.4-7.2 13-16.4 11.1-8.3-1.7-14.8-6.9-14.2-13.8 0.4-3.9 2.9-7.3 6.7-9.2 1.9-1 2.3-2.1 1.3-4.1-0.4-0.9-0.8-1.8-1.1-2.9-0.2-0.9-1.1-4.8 2.3-4 2.2 0.5 1.7 2.5 2.2 4.1 0.7 2.3 2.2 4.1 4.9 4.3 3.1 0.3 6.5-2 7.1-5.3 0.7-4.1-3.7-7.7-7.8-6.1-1.2 0.5-4.3 1.9-5.7 0.1-3.5-4.4-4.4-5.4-1.9-4.9 2 0.4 4-0.4 6.9-1.7 8.8-3.8 17 4.4 15.6 12.1-0.5 2.6-2.2 4.8-4 6.6-1.3 1.2-1.3 3-0.1 4.2z m-13.4 12.6c4.6 1.3 8-1.5 8-5.4 0-3.4-2.8-6.4-6.9-6.7s-7.4 2.1-7.7 5.4c-0.3 3.4 2.6 5.7 6.6 6.7z" fill="#FFEB00" p-id="7142"></path></svg>