<svg t="1577774212069" class="icon" viewBox="0 0 1024 1024" version="1.1" xmlns="http://www.w3.org/2000/svg" p-id="5422" width="200" height="200"><path d="M900.654545 95.418182H123.345455C65.163636 95.418182 16.290909 141.963636 16.290909 202.472727V698.181818c0 58.181818 46.545455 107.054545 107.054546 107.054546h777.30909c58.181818 0 107.054545-46.545455 107.054546-107.054546V202.472727c0-58.181818-48.872727-107.054545-107.054546-107.054545" fill="#FC88A7" p-id="5423"></path><path d="M900.654545 79.127273H123.345455C55.854545 79.127273 0 134.981818 0 202.472727V698.181818c0 67.490909 55.854545 123.345455 123.345455 123.345455h777.30909c67.490909 0 123.345455-55.854545 123.345455-123.345455V202.472727c0-67.490909-55.854545-123.345455-123.345455-123.345454zM989.090909 698.181818c0 48.872727-39.563636 88.436364-88.436364 88.436364H123.345455c-48.872727 0-88.436364-39.563636-88.436364-88.436364V202.472727c0-48.872727 39.563636-88.436364 88.436364-88.436363h777.30909c48.872727 0 88.436364 39.563636 88.436364 88.436363V698.181818z" fill="#E60E2D" p-id="5424"></path><path d="M616.727273 423.563636l-165.236364-104.727272c-30.254545-18.618182-53.527273-6.981818-53.527273 27.927272v221.090909c0 34.909091 23.272727 46.545455 53.527273 27.927273l165.236364-104.727273c27.927273-18.618182 27.927273-48.872727 0-67.490909zM828.509091 872.727273H53.527273c-18.618182 0-34.909091 16.290909-34.909091 34.909091 0 20.945455 16.290909 34.909091 34.909091 34.909091h777.309091c18.618182 0 34.909091-16.290909 34.909091-34.909091s-16.290909-34.909091-37.236364-34.909091z" fill="#E60E2D" p-id="5425"></path><path d="M970.472727 909.963636m-34.909091 0a34.909091 34.909091 0 1 0 69.818182 0 34.909091 34.909091 0 1 0-69.818182 0Z" fill="#E60E2D" p-id="5426"></path><path d="M83.781818 207.127273h-4.654545c-6.981818 0-11.636364 4.654545-11.636364 11.636363v309.527273c0 6.981818 4.654545 11.636364 11.636364 11.636364h4.654545c6.981818 0 11.636364-4.654545 11.636364-11.636364V221.090909c0-6.981818-4.654545-13.963636-11.636364-13.963636z" fill="#FCFCFF" p-id="5427"></path><path d="M81.454545 572.509091m-13.963636 0a13.963636 13.963636 0 1 0 27.927273 0 13.963636 13.963636 0 1 0-27.927273 0Z" fill="#FCFCFF" p-id="5428"></path></svg>