<svg t="1577777692827" class="icon" viewBox="0 0 1024 1024" version="1.1" xmlns="http://www.w3.org/2000/svg" p-id="1821" width="200" height="200"><path d="M874 150C674.1-50 349.9-50 150 150s-200 524.1 0 724 524.1 200 724 0 200-524.1 0-724z m-73.8 187.6L405.5 732.3s-0.1 0-0.1 0.1c0 0 0 0.1-0.1 0.1l-1 1c-12.2 12.2-32.1 12.2-44.3 0L223.3 596.7c-12.2-12.2-12.2-32.1 0-44.3l1-1c12.2-12.2 32.1-12.2 44.3 0l112.3 112.3L753.6 291c12.8-12.8 33.7-12.8 46.5 0 12.9 12.8 12.9 33.8 0.1 46.6z" fill="#009933" p-id="1822"></path></svg>