<svg t="1577186168678" class="icon" viewBox="0 0 1024 1024" version="1.1" xmlns="http://www.w3.org/2000/svg" p-id="1455" width="200" height="200"><path d="M563.2 544.256m-424.96 0a424.96 424.96 0 1 0 849.92 0 424.96 424.96 0 1 0-849.92 0Z" fill="#17E6A1" p-id="1456" data-spm-anchor-id="a313x.7781069.0.i3" class=""></path><path d="M711.68 519.168l-160.768-100.352 45.568-158.208c2.56-8.704-1.024-17.92-8.704-23.04s-17.92-4.608-25.088 1.536L334.848 422.4c-5.12 4.096-8.192 10.752-7.68 17.408 0.512 6.656 4.608 12.8 10.24 16.384l139.264 80.384-53.248 228.864c-1.536 6.144 0 12.8 4.096 17.408 4.096 5.12 10.24 7.68 16.896 7.68 5.12 0 10.752-2.048 14.336-5.632l255.488-233.472c4.608-4.608 7.168-10.752 6.656-16.896s-3.584-11.776-9.216-15.36z m-230.912 189.44l41.472-177.664c2.048-8.704-2.048-17.92-9.728-22.528L385.536 435.2l151.552-121.856-31.232 109.056c-2.56 8.704 1.024 17.92 9.216 23.04l151.04 94.208-185.344 168.96z m31.744-658.432C257.024 50.176 49.152 257.536 49.152 512s207.872 462.336 463.872 462.336c255.488 0 463.872-207.36 463.872-462.336-0.512-254.464-208.384-461.824-464.384-461.824z m0 864.256c-222.72 0-403.456-180.224-403.456-401.92s180.736-402.432 403.456-402.432c222.208 0 403.456 180.224 403.456 401.92 0 222.208-180.736 402.432-403.456 402.432z" fill="#333333" p-id="1457"></path></svg>