<svg t="1577186105928" class="icon" viewBox="0 0 1024 1024" version="1.1" xmlns="http://www.w3.org/2000/svg" p-id="1274" width="200" height="200"><path d="M511.9 147.9c-69.1 0-126.3 39.6-138.5 113.4h277c-12.1-73.8-69.3-113.4-138.5-113.4zM130.9 856c0 18 5.9 34.9 16.8 47.2 10.9 12.3 26.1 19.1 42.9 19.1h645c16.7 0 31.9-6.8 42.9-19.2 10.9-12.3 16.8-29.1 16.8-47.3 0-3.5-0.2-7-0.6-10.5L852.6 563c-61.8 29.5-272.9 124.7-405.5 117.2-140.8-8-237.7-78.3-274.7-110.1l-40.9 275.8c-0.4 3.4-0.6 6.8-0.6 10.1zM701.2 455.3c17.6 0 32-14.3 32-32 0-17.6-14.3-32-32-32-17.6 0-32 14.3-32 32 0 17.6 14.3 32 32 32zM359.4 423.3c0-17.6-14.3-32-32-32-17.6 0-32 14.3-32 32 0 17.6 14.3 32 32 32s32-14.4 32-32z" fill="#FFD524" p-id="1275"></path><path d="M315.7 218.1c2.3 0.9 4.6 1.4 7 1.4 7.4 0 14.4-4.4 17.3-11.7 2.1-5.3 4.6-10.6 7.2-15.7 4.8-9.1 1.3-20.4-7.9-25.2s-20.4-1.3-25.2 7.9c-3.2 6.2-6.2 12.6-8.8 19.1-3.8 9.5 0.9 20.3 10.4 24.2zM358.9 162.2c5 0 10-2 13.6-5.9 3.2-3.4 6.5-6.7 10-9.8 7.7-6.9 8.3-18.7 1.4-26.4-6.9-7.7-18.7-8.4-26.4-1.5-4.3 3.9-8.4 7.9-12.4 12.1-7 7.5-6.6 19.3 0.9 26.4 3.8 3.5 8.3 5.1 12.9 5.1zM770.5 423.3c0-38.2-31.1-69.3-69.3-69.3-38.2 0-69.3 31.1-69.3 69.3 0 38.2 31.1 69.3 69.3 69.3 38.2 0 69.3-31.1 69.3-69.3z m-69.3-32c17.6 0 32 14.3 32 32 0 17.6-14.3 32-32 32-17.6 0-32-14.3-32-32 0-17.6 14.3-32 32-32zM396.7 423.3c0-38.2-31.1-69.3-69.3-69.3-38.2 0-69.3 31.1-69.3 69.3 0 38.2 31.1 69.3 69.3 69.3 38.2 0 69.3-31.1 69.3-69.3z m-101.2 0c0-17.6 14.3-32 32-32 17.6 0 32 14.3 32 32 0 17.6-14.3 32-32 32s-32-14.4-32-32z" fill="#6B400D" p-id="1276"></path><path d="M931.5 840.4l-74.3-501.5c-5.5-43.6-47.3-77.7-95.2-77.7h-28.1C721.5 142.4 634.2 63.9 511.5 63.9c-38.7 0-74.5 7.8-106.3 23.1-9.3 4.5-13.2 15.6-8.7 24.9 4.5 9.3 15.6 13.1 24.9 8.7 26.7-12.9 57-19.4 90.1-19.4 102.4 0 173.1 62.2 184.7 160H264.1c-10.3 0-18.7 8.4-18.7 18.7s8.4 18.7 18.7 18.7h497.8c28.8 0 54.7 19.9 58.2 45 0 0.2 0 0.4 0.1 0.6L852.6 563l41.9 282.5c0.4 3.5 0.6 7 0.6 10.5 0 18.2-5.9 35-16.8 47.3-10.9 12.4-26.1 19.2-42.9 19.2h-645c-16.7 0-32-6.8-42.9-19.1-10.9-12.3-16.8-29.3-16.8-47.2 0-3.4 0.2-6.7 0.6-10.1L172.4 570l33.5-225.8c0.1-0.9 0.2-1.8 0.2-2.8 0-9.1-6.7-17.1-15.9-18.4-10.2-1.5-19.7 5.5-21.2 15.7L94.5 840.9c-0.6 5-0.9 10.1-0.9 15 0 27.3 9.2 52.9 26.2 72.1 18.1 20.5 43.3 31.7 70.8 31.7h645c27.6 0 52.7-11.3 70.8-31.8 16.9-19.1 26.1-44.7 26.1-72.2-0.1-5-0.4-10.1-1-15.3z" fill="#6B400D" p-id="1277"></path></svg>