<svg t="1577163218203" class="icon" viewBox="0 0 1024 1024" version="1.1" xmlns="http://www.w3.org/2000/svg" p-id="12713" width="200" height="200"><path d="M512 1024C229.230208 1024 0 794.769792 0 512 0 229.230208 229.230208 0 512 0 794.769792 0 1024 229.230208 1024 512 1024 794.769792 794.769792 1024 512 1024ZM512 998.4C780.631296 998.4 998.4 780.631296 998.4 512 998.4 243.368704 780.631296 25.6 512 25.6 243.368704 25.6 25.6 243.368704 25.6 512 25.6 780.631296 243.368704 998.4 512 998.4ZM730.698342 686.580224C716.186522 650.140109 688.792346 618.217549 651.987891 594.853171L633.664922 583.221274 617.599974 597.940429C588.743987 624.379136 551.538278 639.224243 512 639.224243 472.461722 639.224243 435.256013 624.379136 406.400026 597.940429L390.335078 583.221274 372.012109 594.853171C334.430515 618.710886 306.660813 651.492019 292.399667 688.894541 285.912474 705.908403 283.637632 728.084966 283.637632 728.084966 282.551834 735.990938 288.355149 742.4 296.079872 742.4 304.037325 742.4 316.818662 742.4 324.831949 742.4L699.168051 742.4C707.089946 742.4 720.195405 742.4 727.920128 742.4 735.877581 742.4 741.502157 736.166605 740.279706 727.946701 740.279706 727.946701 737.745357 704.275763 730.698342 686.580224ZM281.6 462.351514C281.6 431.915827 289.731251 406.866611 318.652314 403.725798 343.332198 318.317722 420.556134 256 512 256 603.443866 256 680.667802 318.317722 705.347686 403.725798 734.268749 406.866611 742.4 431.915827 742.4 462.351514 742.4 492.7872 734.268749 517.836416 705.347686 520.977229 705.315712 521.087898 703.704346 521.029555 703.704346 521.029555 687.833344 521.183949 678.451328 508.944435 682.142285 493.364352 682.142285 493.364352 680.739302 502.009446 682.402202 491.882752 683.979136 482.279475 684.8 472.413619 684.8 462.351514 684.8 364.667418 607.434803 285.478784 512 285.478784 416.565197 285.478784 339.2 364.667418 339.2 462.351514 339.2 472.414566 340.021018 482.28137 341.598259 491.885517 343.261158 502.011213 341.858176 493.366963 341.858176 493.366963 345.820518 508.798976 336.01367 521.309082 320.049741 521.309082L318.748467 521.309082C289.731251 517.836416 281.6 492.7872 281.6 462.351514ZM512 609.745459C591.529011 609.745459 656 543.754931 656 462.351514 656 380.948096 591.529011 314.957568 512 314.957568 432.470989 314.957568 368 380.948096 368 462.351514 368 543.754931 432.470989 609.745459 512 609.745459Z" p-id="12714" fill="#FE5E3F"></path></svg>