<svg t="1577158354170" class="icon" viewBox="0 0 1052 1024" version="1.1" xmlns="http://www.w3.org/2000/svg" p-id="4693" width="200" height="200"><path d="M995.555556 929.848889A37.262222 37.262222 0 0 1 958.293333 967.111111H94.151111A37.262222 37.262222 0 0 1 56.888889 929.848889V768H0v161.848889A94.435556 94.435556 0 0 0 94.151111 1024h864.142222A94.435556 94.435556 0 0 0 1052.444444 929.848889V768h-56.888888zM958.293333 0H94.151111A94.435556 94.435556 0 0 0 0 94.151111V256h56.888889V94.151111A37.262222 37.262222 0 0 1 94.151111 56.888889h864.142222A37.262222 37.262222 0 0 1 995.555556 94.151111V256h56.888888V94.151111A94.435556 94.435556 0 0 0 958.293333 0z" p-id="4694" fill="#ffffff"></path><path d="M119.751111 199.111111v288.995556H42.666667v47.786666h77.084444V824.888889h56.888889V535.893333h54.897778V824.888889h85.333333V535.893333h69.12V824.888889h28.444445V535.893333h83.342222V824.888889h56.888889V535.893333h54.897777V824.888889h85.333334V535.893333h69.12V824.888889h28.444444V535.893333h83.342222V824.888889h56.888889V535.893333h77.084445v-47.786666h-77.084445V199.111111h-56.888889v288.995556h-83.342222V199.111111h-28.444444v288.995556h-69.12V199.111111h-85.333334v288.995556H554.666667V199.111111h-56.888889v288.995556h-83.342222V199.111111h-28.444445v288.995556h-69.12V199.111111h-85.333333v288.995556H176.64V199.111111h-56.888889z" p-id="4695" fill="#ffffff"></path></svg>