<svg t="1577260829428" class="icon" viewBox="0 0 1050 1024" version="1.1" xmlns="http://www.w3.org/2000/svg" p-id="2536" width="200" height="200"><path d="M1018.825649 207.054252h-144.199929l-1.163226-1.323671h-106.014024a16.044498 16.044498 0 0 1 0-32.088997H922.558659a16.044498 16.044498 0 0 0 0-32.088997h-119.451291A454.059305 454.059305 0 0 0 103.00568 649.802186H41.434917a16.044498 16.044498 0 0 0 0 32.088997h73.604137a452.174077 452.174077 0 0 0 32.931333 64.177993h174.283364a16.044498 16.044498 0 0 1 0 32.088997h-152.422735a454.259861 454.259861 0 0 0 58.000861 64.177994H28.077872a16.044498 16.044498 0 0 0 0 32.088997h236.656352a16.044498 16.044498 0 0 0 2.005562 0 453.89886 453.89886 0 0 0 633.757687-634.880803H1018.825649a16.044498 16.044498 0 0 0 0-32.088997zM202.561792 632.915351H124.344863a16.044498 16.044498 0 0 1 0-32.088997h78.216929a16.044498 16.044498 0 0 1 0 32.088997z m375.361041-397.101336a16.044498 16.044498 0 0 1-16.044499 16.044499h-72.842022a16.044498 16.044498 0 0 1-16.044499-16.044499 16.044498 16.044498 0 0 1 16.044499-16.044498h72.842022a16.044498 16.044498 0 0 1 16.044499 16.044498z" fill="#AFD9E0" opacity=".7" p-id="2537"></path><path d="M910.324729 49.737945l-18.932508-4.17157-14.15927 13.236712-1.885229-19.29351L858.380665 30.163657l17.729171-7.781582 3.690235-19.01273 12.875709 14.480159 19.213287-2.406674-9.787144 16.726389 8.222806 17.568726zM33.81378 830.623683l-2.166007-22.301853-19.614399-10.830036 20.496847-8.944808 4.251792-21.980963 14.881272 16.72639 22.22163-2.767676-11.311371 19.293509 9.626699 20.29629-21.860629-4.813349z m-12.715265-32.690666l14.319715 8.02225 1.60445 16.285165 12.033374-11.191037 16.044498 3.529789-6.939245-14.841161 8.262916-14.119158-16.245054 2.045673-10.870148-12.274041-3.088566 16.044498z" fill="#F7D854" p-id="2538"></path><path d="M106.014023 211.386267a19.734733 19.734733 0 1 1 19.694622-19.694622 19.734733 19.734733 0 0 1-19.694622 19.694622z m0-31.407106a11.712484 11.712484 0 1 0 11.672373 11.712484 11.712484 11.712484 0 0 0-11.672373-11.712484z" fill="#25D8EF" p-id="2539"></path><path d="M858.380665 916.702417m-27.075091 0a27.075091 27.075091 0 1 0 54.150182 0 27.075091 27.075091 0 1 0-54.150182 0Z" fill="#5886FF" p-id="2540"></path><path d="M160.444984 23.063966a4.011125 4.011125 0 0 0 4.011125-4.011124V4.011125a4.011125 4.011125 0 0 0-8.022249 0v15.041717a4.011125 4.011125 0 0 0 4.011124 4.011124zM148.973168 25.189863a4.011125 4.011125 0 0 0 5.695797-5.695797l-10.62948-10.589369a4.011125 4.011125 0 0 0-5.695797 5.655685zM152.101845 30.765326a4.011125 4.011125 0 0 0-4.011125-4.011125h-15.041717a4.011125 4.011125 0 0 0 0 8.022249h15.001606a4.011125 4.011125 0 0 0 4.051236-4.011124zM148.41161 36.541345l-10.62948 10.62948a4.011125 4.011125 0 0 0 5.695797 5.695797l10.62948-10.62948A4.011125 4.011125 0 0 0 148.41161 36.541345zM159.803204 39.108465a4.011125 4.011125 0 0 0-4.011124 4.011124v15.041718a4.011125 4.011125 0 0 0 8.022249 0v-15.041718a4.011125 4.011125 0 0 0-4.011125-4.011124zM171.234909 36.982569a4.011125 4.011125 0 0 0-5.655685 0 4.011125 4.011125 0 0 0 0 5.695797l10.62948 10.589369a4.011125 4.011125 0 1 0 5.655686-5.655686zM187.159074 27.35587h-15.001606a4.011125 4.011125 0 0 0 0 8.022249h15.001606a4.011125 4.011125 0 1 0 0-8.022249zM171.676133 25.631086l10.62948-10.62948A4.011125 4.011125 0 0 0 176.489483 9.305809L165.980336 20.055623a4.011125 4.011125 0 0 0 5.695797 5.575463z" fill="#FA7F80" p-id="2541"></path><path d="M999.131027 703.350699a4.011125 4.011125 0 0 0 4.011125-4.011124v-15.041718a4.011125 4.011125 0 0 0-8.022249 0v15.001606a4.011125 4.011125 0 0 0 4.011124 4.051236zM987.699322 705.476595a4.011125 4.011125 0 0 0 5.695797-5.695797l-10.669591-10.62948a4.011125 4.011125 0 0 0-5.695797 5.695797zM990.747777 711.052058a4.011125 4.011125 0 0 0-4.011125-4.011124h-15.001606a4.011125 4.011125 0 0 0 0 8.022249H986.736652a4.011125 4.011125 0 0 0 4.011125-4.011125zM987.258099 716.828078l-10.629481 10.589369a4.011125 4.011125 0 0 0 5.695797 5.695797l10.629481-10.62948a4.011125 4.011125 0 0 0 0-5.655686 4.011125 4.011125 0 0 0-5.695797 0zM998.529359 719.395198a4.011125 4.011125 0 0 0-4.011125 4.011124v15.001606a4.011125 4.011125 0 1 0 8.022249 0v-15.001606a4.011125 4.011125 0 0 0-4.011124-4.011124zM1010.001175 717.22919a4.011125 4.011125 0 1 0-5.695797 5.695797l10.62948 10.62948a4.011125 4.011125 0 0 0 5.655686 0 4.011125 4.011125 0 0 0 0-5.695796zM1025.885229 707.642603H1010.8034a4.011125 4.011125 0 0 0 0 8.022249h15.001606a4.011125 4.011125 0 1 0 0-8.022249zM1010.402288 705.95793l10.62948-10.62948a4.011125 4.011125 0 0 0-5.695797-5.695797l-10.62948 10.62948a4.011125 4.011125 0 0 0 5.695797 5.695797z" fill="#C39DF4" p-id="2542"></path><path d="M885.134866 1024a12.033374 12.033374 0 0 1 0-24.066748H1038.881272a12.033374 12.033374 0 0 1 0 24.066748zM779.802734 1024a12.033374 12.033374 0 0 1 0-24.066748h49.457167a12.033374 12.033374 0 0 1 0 24.066748zM500.468017 1024H106.014023a12.033374 12.033374 0 1 1 0-24.066748H741.255827a12.033374 12.033374 0 0 1 0 24.066748zM42.598143 1024H12.033374a12.033374 12.033374 0 0 1 0-24.066748h54.912296a12.033374 12.033374 0 1 1 0 24.066748z" fill="#1E1E1E" p-id="2543"></path><path d="M20.456735 511.458498a4.011125 4.011125 0 0 1 0-8.022249l38.105684-0.521446a4.011125 4.011125 0 0 1 4.011125 4.011124 4.011125 4.011125 0 0 1-4.011125 4.011125l-38.105684 0.521446z" fill="#45EF37" p-id="2544"></path><path d="M39.750245 530.270673a4.011125 4.011125 0 0 1-4.011125-4.011125l-0.521446-38.105684a4.011125 4.011125 0 0 1 8.022249 0l0.521446 38.105684a4.011125 4.011125 0 0 1-4.011124 4.011125z" fill="#45EF37" p-id="2545"></path><path d="M1018.825649 445.234831a22.903521 22.903521 0 1 1 22.903522-22.903522A22.903521 22.903521 0 0 1 1018.825649 445.234831z m0-41.795918a18.892397 18.892397 0 1 0 18.892397 18.892396 18.892397 18.892397 0 0 0-18.892397-18.892396z" fill="#F7802F" p-id="2546"></path><path d="M916.341416 450.730072h-322.494418c-13.316934 0-24.066748-9.386032-24.066748-20.978182l-18.290728 1.524227c-6.377688 0-10.990481-9.747033-10.990482-16.044498V321.411414H569.579694v-39.469466c0-11.59215-10.789925-20.978182-24.066748-20.978181H221.173411c-13.316934 0-24.066748 9.386032-24.066748 21.018293V681.891183c0 11.59215 10.789925 20.978182 24.066748 20.978181h24.668416a75.770144 75.770144 0 0 1 151.29962 0h231.201222c-0.200556-2.286341-0.361001-4.612793-0.361001-6.939245a75.890477 75.890477 0 0 1 151.780955 0c0 2.326452 0 4.652905-0.361001 6.939245h128.957656c12.996044 0 23.665635-8.984919 24.066747-20.29629l8.02225-209.982373c0.441224-11.993263-10.469035-21.860629-24.106859-21.860629z" fill="#44CEF6" p-id="2547"></path><path d="M901.861256 450.730072h-318.322849c-13.116377 0-23.785969-9.386032-23.785969-20.978182l-18.05006 1.524227c-6.297466 0-10.870148-9.747033-10.870148-16.044498V321.411414h28.920208v-39.469466c0-11.59215-10.669591-20.978182-23.785968-20.978181h-63.73677c13.156489 0 20.496847 36.621568 20.496846 48.133495v147.76983c0 11.59215 10.62948 20.978182 23.785969 20.978182h318.282737c13.477379 0 24.066748 9.867367 23.785969 21.740295l-7.621136 203.043128h42.999255c12.835599 0 23.384856-8.984919 23.785969-20.296291l8.022249-209.982373c0.32089-11.752595-10.469035-21.619962-23.906302-21.619961z" fill="#52BFD8" p-id="2548"></path><path d="M860.907674 446.678836l-300.272788 2.767676V319.405852h173.802029c61.370206 0 98.312664 49.056054 121.817854 113.354381z" fill="#44CEF6" p-id="2549"></path><path d="M828.578009 443.309491a12.033374 12.033374 0 0 1-11.311371-8.022249 251.617846 251.617846 0 0 0-33.452779-65.02033 12.033374 12.033374 0 0 1 19.293509-14.440048 276.767598 276.767598 0 0 1 36.782013 71.277684 12.033374 12.033374 0 0 1-7.220025 15.402718 11.311371 11.311371 0 0 1-4.091347 0.802225zM772.863489 352.417408a12.033374 12.033374 0 0 1-8.02225-3.088566A117.084727 117.084727 0 0 0 754.091425 340.945591a12.033374 12.033374 0 0 1 13.918603-19.65451 140.67014 140.67014 0 0 1 12.87571 10.30859 12.033374 12.033374 0 0 1-8.022249 20.978182zM737.445258 329.95511a11.311371 11.311371 0 0 1-4.53257-0.922559A113.675271 113.675271 0 0 0 689.913432 320.889968h-149.454503a12.033374 12.033374 0 0 1 0-24.066747H689.913432a137.260684 137.260684 0 0 1 52.14462 9.867366 12.033374 12.033374 0 0 1-4.572682 23.1843zM218.726625 703.029809h-37.905128a12.033374 12.033374 0 0 1 0-24.066747h37.905128a12.033374 12.033374 0 0 1 0 24.066747zM515.188844 703.029809H466.493791a12.033374 12.033374 0 1 1 0-24.066747h48.695053a12.033374 12.033374 0 0 1 0 24.066747z" fill="#1E1E1E" p-id="2550"></path><path d="M868.007364 703.029809h-56.155744a12.033374 12.033374 0 0 1 0-24.066747h56.155744c6.377688 0 12.033374-4.011125 12.033374-8.744252l8.022249-209.982373a7.300247 7.300247 0 0 0-2.286341-5.374907 13.437267 13.437267 0 0 0-9.787144-4.011125H553.535195c-20.055623 0-36.100121-14.80105-36.100121-33.011555V270.189353c0-4.853461-5.535352-8.944808-12.033374-8.944808H275.042814a12.033374 12.033374 0 0 1 0-24.066747H505.4017c20.055623 0 36.100121 14.80105 36.100121 33.011555v147.809942c0 4.853461 5.535352 8.944808 12.033374 8.944808h322.494418a37.704571 37.704571 0 0 1 27.155314 11.231149 31.286772 31.286772 0 0 1 8.944808 23.104077l-8.022249 209.982373c-0.64178 17.769282-16.525833 31.768107-36.100122 31.768107z" fill="#1E1E1E" p-id="2551"></path><path d="M350.89318 703.350699m-75.890477 0a75.890477 75.890477 0 1 0 151.780955 0 75.890477 75.890477 0 1 0-151.780955 0Z" fill="#45B7EF" p-id="2552"></path><path d="M341.908261 631.752125a72.481022 72.481022 0 0 0-10.30859 0.802225 75.770144 75.770144 0 0 1 0 150.176505 72.481022 72.481022 0 0 0 10.30859 0.802225 75.890477 75.890477 0 0 0 0-151.780955z" fill="#3797B5" p-id="2553"></path><path d="M728.660895 698.417016m-75.890477 0a75.890477 75.890477 0 1 0 151.780955 0 75.890477 75.890477 0 1 0-151.780955 0Z" fill="#45B7EF" p-id="2554"></path><path d="M719.635865 626.858553a78.818598 78.818598 0 0 0-10.268479 0.762114 75.810255 75.810255 0 0 1 0 150.216616 72.200243 72.200243 0 0 0 10.268479 0.762114 75.890477 75.890477 0 1 0 0-151.740844z" fill="#3797B5" p-id="2555"></path><path d="M679.685064 712.094951a4.011125 4.011125 0 0 1-3.770457-2.56712c-16.485722-42.999256 14.359826-59.003643 14.680716-59.164088a4.011125 4.011125 0 1 1 3.569901 7.139802c-1.042892 0.561557-24.548083 13.156489-10.749814 49.136276a4.011125 4.011125 0 0 1-2.286341 5.214462 4.532571 4.532571 0 0 1-1.444005 0.240668z" fill="#FFFFFF" p-id="2556"></path><path d="M321.491637 790.672882A87.88374 87.88374 0 0 1 272.756473 629.505895a12.033374 12.033374 0 1 1 13.316934 20.055623 63.897215 63.897215 0 1 0 35.257785-10.589369 63.014768 63.014768 0 0 0-14.80105 1.724784 12.033374 12.033374 0 1 1-5.575463-23.424968 87.923851 87.923851 0 1 1 20.376513 173.441028zM703.872145 783.733636a87.923851 87.923851 0 1 1 87.923852-87.923851 88.004074 88.004074 0 0 1-87.923852 87.923851z m0-151.780955a63.857104 63.857104 0 1 0 63.857104 63.857104 63.897215 63.897215 0 0 0-63.857104-63.857104z" fill="#1E1E1E" p-id="2557"></path><path d="M301.917349 716.988523a4.011125 4.011125 0 0 1-3.730346-2.56712c-16.485722-42.999256 14.319715-59.003643 14.640605-59.164088a4.011125 4.011125 0 0 1 3.610012 7.179913c-1.042892 0.521446-24.588194 13.116377-10.789925 49.136277a4.011125 4.011125 0 0 1-2.286341 5.17435 4.532571 4.532571 0 0 1-1.444005 0.240668z" fill="#FFFFFF" p-id="2558"></path><path d="M227.350543 303.762466m27.115202 0l187.760743 0q27.115202 0 27.115202 27.115203l0 0q0 27.115202-27.115202 27.115202l-187.760743 0q-27.115202 0-27.115202-27.115202l0 0q0-27.115202 27.115202-27.115203Z" fill="#FFFFFF" p-id="2559"></path><path d="M433.562458 303.762466h-37.423792a27.115202 27.115202 0 0 1 0 54.230405h37.423792a27.115202 27.115202 0 1 0 0-54.230405z" fill="#DAF0F2" p-id="2560"></path><path d="M176.329038 422.331309m27.115202 0l187.760743 0q27.115202 0 27.115202 27.115203l0 0q0 27.115202-27.115202 27.115202l-187.760743 0q-27.115202 0-27.115202-27.115202l0 0q0-27.115202 27.115202-27.115203Z" fill="#FFFFFF" p-id="2561"></path><path d="M374.959928 422.331309h-37.463904a27.115202 27.115202 0 1 1 0 54.230405h37.463904a27.115202 27.115202 0 0 0 0-54.230405z" fill="#DAF0F2" p-id="2562"></path><path d="M141.753143 534.402131m27.115203 0l187.760742 0q27.115202 0 27.115203 27.115202l0 0q0 27.115202-27.115203 27.115203l-187.760742 0q-27.115202 0-27.115203-27.115203l0 0q0-27.115202 27.115203-27.115202Z" fill="#FFFFFF" p-id="2563"></path><path d="M338.177915 534.402131H300.834345a27.115202 27.115202 0 0 1 0 54.230405h37.423793a27.115202 27.115202 0 0 0 0-54.230405z" fill="#DAF0F2" p-id="2564"></path><path d="M411.140272 370.026245H223.379529a39.148576 39.148576 0 0 1 0-78.297153h187.760743a39.148576 39.148576 0 1 1 0 78.297153zM223.379529 315.79584a15.081829 15.081829 0 1 0 0 30.163657h187.760743a15.081829 15.081829 0 1 0 0-30.163657zM356.6692 488.595088H168.868346a39.148576 39.148576 0 1 1 0-78.297152h187.800854a39.148576 39.148576 0 1 1 0 78.297152zM168.868346 434.364683a15.081829 15.081829 0 1 0 0 30.163657h187.800854a15.081829 15.081829 0 1 0 0-30.163657zM313.710055 600.665909H125.949313a39.148576 39.148576 0 1 1 0-78.297152h187.760742a39.148576 39.148576 0 1 1 0 78.297152zM125.949313 546.435505a15.081829 15.081829 0 1 0 0 30.163657h187.760742a15.081829 15.081829 0 0 0 0-30.163657z" fill="#1E1E1E" p-id="2565"></path><path d="M746.83129 377.246269a4.011125 4.011125 0 0 1-4.011125-4.011125 30.644992 30.644992 0 0 0-30.60488-30.60488 4.011125 4.011125 0 0 1 0-8.02225 38.667241 38.667241 0 0 1 38.62713 38.62713 4.011125 4.011125 0 0 1-4.011125 4.011125z" fill="#FFFFFF" p-id="2566"></path></svg>