<svg t="1577261950192" class="icon" viewBox="0 0 1024 1024" version="1.1" xmlns="http://www.w3.org/2000/svg" p-id="4433" width="200" height="200"><path d="M768 448c0 12.8-8.533333 21.333333-21.333333 21.333333s-21.333333-8.533333-21.333334-21.333333V349.866667c0-12.8-8.533333-21.333333-21.333333-25.6-76.8-12.8-140.8-46.933333-192-98.133334-51.2 55.466667-115.2 89.6-192 102.4-12.8 0-21.333333 8.533333-21.333333 21.333334v251.733333c0 21.333333 0 29.866667 4.266666 38.4 0 4.266667 4.266667 8.533333 8.533334 12.8 4.266667 4.266667 12.8 8.533333 34.133333 21.333333l166.4 89.6 170.666667-89.6c21.333333-8.533333 25.6-12.8 34.133333-17.066666 4.266667-4.266667 8.533333-8.533333 8.533333-12.8 4.266667-8.533333 4.266667-12.8 4.266667-38.4v-25.6c0-12.8 8.533333-21.333333 21.333333-21.333334s21.333333 8.533333 21.333334 21.333334v25.6c0 29.866667 0 42.666667-4.266667 51.2-4.266667 12.8-8.533333 21.333333-21.333333 29.866666-8.533333 8.533333-17.066667 12.8-46.933334 25.6L516.266667 810.666667H512h-8.533333l-179.2-98.133334c-25.6-12.8-34.133333-17.066667-46.933334-25.6-8.533333-8.533333-17.066667-17.066667-21.333333-29.866666 4.266667-12.8 0-25.6 0-55.466667V311.466667c0-12.8 12.8-25.6 25.6-25.6 89.6-4.266667 162.133333-42.666667 217.6-106.666667 8.533333-8.533333 21.333333-8.533333 29.866667-4.266667l4.266666 4.266667c51.2 64 128 98.133333 217.6 106.666667 8.533333 0 17.066667 12.8 17.066667 25.6v136.533333z" p-id="4434" fill="#FF5918"></path><path d="M405.333333 554.666667c-12.8 0-21.333333-8.533333-21.333333-21.333334v-85.333333c0-12.8 8.533333-21.333333 21.333333-21.333333s21.333333 8.533333 21.333334 21.333333v85.333333c0 12.8-8.533333 21.333333-21.333334 21.333334zM618.666667 554.666667c-12.8 0-21.333333-8.533333-21.333334-21.333334v-85.333333c0-12.8 8.533333-21.333333 21.333334-21.333333s21.333333 8.533333 21.333333 21.333333v85.333333c0 12.8-8.533333 21.333333-21.333333 21.333334zM512 597.333333c-12.8 0-21.333333-8.533333-21.333333-21.333333v-170.666667c0-12.8 8.533333-21.333333 21.333333-21.333333s21.333333 8.533333 21.333333 21.333333v170.666667c0 12.8-8.533333 21.333333-21.333333 21.333333z" p-id="4435" fill="#FF5918"></path></svg>